<svg xmlns="http://www.w3.org/2000/svg" viewBox="0 0 900 900" width="900" height="900" role="img" aria-label="Pressed fern tote print" class="cyano cyano-blue">
  
  <defs>
    <filter id="cyanotote01-wash" x="-5%" y="-5%" width="110%" height="110%" color-interpolation-filters="sRGB">
      <feTurbulence type="fractalNoise" baseFrequency="0.0040 0.0050" numOctaves="3" seed="61" result="low"/>
      <feDisplacementMap in="SourceGraphic" in2="low" scale="27" xChannelSelector="R" yChannelSelector="G" result="rough"/>
      <feTurbulence type="fractalNoise" baseFrequency="0.015" numOctaves="4" seed="68" result="mottle"/>
      <feColorMatrix in="mottle" type="matrix" values="0 0 0 0 0  0 0 0 0 0  0 0 0 0 0  0 0 0 0.55 0" result="mottleA"/>
      <feComposite in="mottleA" in2="rough" operator="in" result="mottleClip"/>
      <feBlend in="rough" in2="mottleClip" mode="multiply"/>
    </filter>
    <filter id="cyanotote01-grain" x="0" y="0" width="100%" height="100%" color-interpolation-filters="sRGB">
      <feTurbulence type="fractalNoise" baseFrequency="0.9" numOctaves="2" seed="64"/>
      <feColorMatrix type="saturate" values="0"/>
    </filter>
    <filter id="cyanotote01-soft" x="-10%" y="-10%" width="120%" height="120%">
      <feGaussianBlur stdDeviation="0.64"/>
    </filter>
    <filter id="cyanotote01-halo" x="-20%" y="-20%" width="140%" height="140%">
      <feGaussianBlur stdDeviation="10.0"/>
    </filter>
    <radialGradient id="cyanotote01-vig" cx="50%" cy="45%" r="75%">
      <stop offset="0" stop-color="#2C5A8C" stop-opacity="0.35"/>
      <stop offset="0.55" stop-color="#1E4068" stop-opacity="0"/>
      <stop offset="1" stop-color="#14304F" stop-opacity="0.75"/>
    </radialGradient>
  </defs>
  <rect class="paper" width="900" height="900" fill="#F1ECE0"/>
  <rect class="wash" x="40.5" y="40.5" width="819" height="819" fill="#1E4068" filter="url(#cyanotote01-wash)"/>
  <rect class="vignette" x="40.5" y="40.5" width="819" height="819" fill="url(#cyanotote01-vig)"/>
  <g class="halo" fill="#F3EEE2" opacity="0.28" filter="url(#cyanotote01-halo)"><g class="plant" data-i="0" transform="translate(420 820) rotate(-11) scale(2)"><g class="sway" data-phase="3.44" data-amp="1.45"><path d="M2.4,0L2.8,-20.4L3.7,-40.7L5,-60.7L6.7,-80.4L8.8,-100L11.4,-119.3L14.4,-138.4L17.8,-157.2L21.6,-175.8L25.9,-194.2L30.6,-212.4L35.7,-230.4L41.2,-248.1L47.2,-265.5L53.6,-282.8L60.4,-299.8L59.6,-300.2L52.5,-283.2L45.9,-266L39.7,-248.6L33.9,-230.9L28.5,-213L23.6,-194.8L19.1,-176.4L15,-157.8L11.3,-138.9L8.1,-119.8L5.3,-100.4L2.9,-80.8L0.9,-61L-0.6,-40.9L-1.7,-20.6L-2.4,0ZM0.7,-23L1.2,-23.8L0.3,-28.9L-3.7,-28.7L-3.7,-35.3L-9.2,-32.5L-9.8,-38L-15.2,-35.5L-16.2,-40.5L-21.2,-38.5L-22.4,-43.1L-27.1,-41.6L-28.6,-45.7L-33,-44.7L-34.8,-48.3L-39,-47.7L-41.3,-50.5L-45.1,-50.6L-47.8,-52.6L-51.2,-53.4L-53.2,-54.7L-51.2,-53.4L-48.8,-50.9L-45.7,-49.5L-43.8,-46.2L-40.3,-45.6L-38.7,-41.7L-34.7,-41.8L-33.4,-37.4L-29.1,-38.2L-28.1,-33.3L-23.6,-34.5L-22.8,-29.1L-18,-30.8L-17.6,-24.8L-12.5,-26.9L-12.3,-20.8L-6.5,-24L-4.7,-20.4L0.1,-22.1ZM1,-31.1L1.4,-30.1L6,-27.7L8.1,-30.9L13.8,-25.6L14.3,-32.8L19.1,-29.7L20.1,-35.7L24.9,-32.4L25.8,-38.6L30.3,-36.4L31.6,-41.5L35.9,-39.7L37.4,-44.2L41.4,-43L43.2,-47.2L46.9,-46.5L49,-50L52.4,-50.1L54.7,-53L57.8,-54L60.4,-56.2L62.7,-57.2L60.4,-56.2L57,-55.8L54.2,-54.3L50.5,-54.7L48,-52.3L44.1,-53.3L41.9,-50.1L37.7,-51.8L35.8,-48L31.5,-50.1L29.8,-45.7L25.2,-48.4L23.7,-43.6L18.6,-47.3L17.6,-41.5L12.6,-45L11.5,-39.4L6,-44.1L5.8,-36.3L2,-37L0.6,-32.1ZM1.5,-39.2L2.1,-40.1L1.7,-45.4L-2.3,-45L-1.6,-52L-7.1,-49.2L-6.4,-56.2L-12.7,-52.2L-12.3,-58.6L-18.1,-55.4L-18,-61.4L-23.6,-58.6L-23.7,-64.2L-29.1,-61.7L-29.8,-66.4L-34.6,-64.7L-35.4,-69.3L-40.1,-67.9L-41.4,-71.8L-45.6,-71L-47.3,-74.2L-51.2,-74L-53.3,-76.6L-56.8,-76.9L-59.3,-78.9L-62.4,-79.8L-65,-81.5L-62.4,-79.8L-60.3,-77.3L-57.4,-75.9L-55.6,-72.9L-52.4,-72.1L-50.9,-68.5L-47.3,-68.4L-46.2,-64.2L-42.2,-64.6L-41.5,-59.8L-37,-61.1L-36.5,-56L-31.9,-57.3L-31.9,-51.4L-26.8,-53.6L-27,-47.4L-21.5,-50.1L-22,-43.4L-16.4,-46.4L-17.3,-39L-11.3,-42.7L-11.4,-36.5L-5.4,-40.1L-4.1,-36.3L0.8,-38.2ZM2,-47.2L2.4,-46.1L6.9,-43.7L9.1,-47.2L14.3,-43.2L15.6,-48.7L21.2,-43.5L21.6,-51.4L26.8,-47.2L27.6,-53.9L32.7,-50.2L33.6,-56.7L38.4,-53.7L39.5,-59.6L44.3,-56.6L45.5,-62.3L50,-60L51.5,-65L55.8,-63L57.4,-67.9L61.6,-66.3L63.4,-70.7L67.2,-69.9L69.3,-73.4L73.1,-73L75.3,-76.3L78.7,-76.6L81.2,-79.2L84.3,-80.1L87.1,-82.2L90.5,-83.6L87.1,-82.2L83.7,-81.7L80.8,-80.2L77.2,-80.2L74.5,-78L70.7,-78.9L68.3,-76L64.3,-77L62.1,-73.7L57.8,-75.6L55.9,-71.5L51.4,-73.8L49.7,-69.4L45.1,-71.9L43.5,-67.1L38.6,-70.3L37.4,-64.8L32.4,-68.2L31.1,-62.7L25.9,-66.7L24.9,-60.5L19.6,-64.7L18.8,-58L13.1,-63.4L12.7,-55.7L7.9,-58.7L7,-52.2L3,-53.2L1.5,-48.3ZM2.5,-55.2L3.1,-56.2L2.6,-61L-1.5,-60.8L-0.7,-67.8L-6,-65.7L-4.8,-73.1L-11.4,-69.1L-10.5,-76.3L-16.9,-72.5L-16.7,-78.6L-22.4,-75.9L-22.4,-81.7L-27.9,-79.3L-27.8,-85.1L-33.3,-82.7L-33.5,-88.2L-38.8,-86L-39.3,-91L-44.3,-89.4L-45.1,-94.1L-49.8,-92.8L-51,-96.8L-55.2,-96.2L-56.8,-99.7L-60.8,-99.5L-62.7,-102.5L-66.3,-102.8L-68.5,-105.4L-71.9,-106.1L-74.4,-108.1L-77.5,-109.3L-80.7,-111.4L-77.5,-109.3L-75.3,-106.8L-72.5,-105.2L-70.6,-102.3L-67.4,-101.3L-65.7,-98L-62.2,-97.4L-60.9,-93.6L-57.1,-93.5L-56.1,-89.3L-51.9,-89.8L-51.3,-84.8L-46.7,-85.9L-46.3,-80.7L-41.5,-82.1L-41.5,-76.3L-36.4,-78.2L-36.5,-72.2L-31.1,-74.4L-31.3,-68.4L-25.9,-70.6L-26.3,-64.3L-20.8,-66.8L-21.8,-59.4L-15.5,-63L-16.8,-55.4L-10.3,-59.2L-10.3,-53.5L-4.2,-56.8L-2.9,-53L1.9,-54.3ZM3.2,-63.2L3.6,-62.1L7.9,-59.8L10.1,-63.2L15.2,-59L16.8,-64.2L22.3,-58.9L22.9,-66.5L28,-62.1L29,-69.1L33.9,-65.3L35,-71.7L39.8,-68.2L41.1,-74L45.6,-71.2L47.1,-76.6L51.7,-73.8L53.2,-79.3L57.5,-77L59.3,-81.6L63.5,-79.7L65.2,-84.4L69.3,-82.9L71.3,-86.9L75.1,-86.1L77.4,-89.4L81,-89.1L83.4,-92.1L86.8,-92.2L89.4,-94.7L92.5,-95.6L95.3,-97.5L99,-98.8L95.3,-97.5L92,-97.1L89,-95.7L85.4,-95.9L82.7,-93.7L79,-94.5L76.5,-91.8L72.6,-92.8L70.2,-89.8L66.1,-91.5L64,-87.7L59.6,-90.2L57.7,-85.9L53.3,-88.3L51.5,-83.7L46.8,-86.9L45.2,-81.8L40.6,-84.9L38.9,-79.9L34.2,-83.3L32.8,-77.6L27.8,-81.7L26.5,-75.6L21.3,-80.3L20.3,-73.6L14.8,-79L14.1,-71.4L9.5,-74.3L8.5,-67.7L4.6,-68.9L2.8,-64.3ZM3.9,-71.1L4.4,-72.1L3.3,-76.9L-0.7,-76.5L-1,-82.8L-5.9,-80.6L-5.4,-88.3L-11.6,-84L-11.6,-90.7L-17.3,-87.1L-17.3,-94L-23.2,-90L-23.6,-96.2L-29,-93.1L-29.4,-99.2L-35,-96L-35.5,-101.9L-40.8,-99L-41.8,-104L-46.6,-102L-47.8,-106.7L-52.6,-104.8L-53.9,-109.2L-58.4,-107.8L-59.9,-111.9L-64.3,-110.7L-66.1,-114.3L-70.2,-113.6L-72.1,-117.1L-76.1,-116.5L-78.3,-119.4L-82,-119.4L-84.4,-121.9L-87.9,-122.3L-90.7,-124.1L-93.9,-125.1L-97.8,-127.2L-93.9,-125.1L-91.4,-122.9L-88.4,-121.5L-86.1,-118.8L-82.8,-118L-80.8,-114.9L-77.2,-114.6L-75.5,-110.9L-71.6,-111.1L-69.9,-107.3L-66,-107.7L-64.6,-103.4L-60.4,-104.3L-59.2,-99.7L-54.7,-101L-53.8,-95.8L-49.1,-97.4L-48.3,-92.2L-43.5,-94.1L-43.1,-88L-37.8,-90.8L-37.6,-84.4L-32.3,-87.2L-31.9,-81L-26.6,-84L-26.8,-76.8L-20.9,-80.6L-20.9,-73.8L-15.2,-77.4L-15.6,-69.9L-9.4,-74.4L-8.6,-69L-3.1,-72.2L-1.3,-68.6L3.3,-70.2ZM4.6,-79L5,-78L9.2,-76L11.5,-79.2L16.3,-75.8L18,-80.5L23.4,-75.3L24.4,-82.1L29.7,-77.3L30.4,-84.6L35.5,-80.2L36.4,-87L41.5,-82.8L42.4,-89.6L47.2,-86.2L48.4,-92.3L53.3,-88.5L54.4,-94.8L59,-91.7L60.4,-97.2L64.9,-94.5L66.5,-99.6L70.9,-97.2L72.5,-102.1L76.7,-100.1L78.5,-104.7L82.6,-103.1L84.5,-107.2L88.6,-105.6L90.5,-109.7L94.4,-108.8L96.5,-112.3L100.3,-111.6L102.5,-114.8L106,-114.7L108.5,-117.4L111.9,-117.7L114.5,-119.9L117.6,-120.9L120.4,-122.6L125.1,-124.4L120.4,-122.6L117.2,-122.1L114.2,-120.7L110.7,-120.7L108,-118.7L104.4,-119.1L101.8,-116.7L98,-117.6L95.6,-114.6L91.7,-115.8L89.4,-112.6L85.3,-114.4L83.2,-110.6L79.1,-112.3L77.1,-108.5L72.7,-110.7L70.9,-106.5L66.4,-109L64.7,-104.4L60.1,-107.2L58.5,-102.2L53.9,-105.4L52.4,-100L47.4,-104L46.2,-97.9L41.3,-101.7L40,-96L34.8,-100.5L33.8,-94L28.6,-98.5L27.7,-91.8L22.3,-96.9L21.5,-89.8L16.3,-94.2L15.6,-86.8L11.2,-89.2L9.9,-83.5L6.1,-84.3L4.2,-80.1ZM5.5,-86.9L6.2,-87.9L5.5,-92.5L1.5,-92.3L1.6,-98.1L-3.2,-96.7L-2.2,-103.7L-7.9,-101.1L-7.1,-107.8L-13.3,-104.6L-12.5,-111.3L-18.5,-108.2L-18,-114.4L-23.9,-111.6L-23.6,-117.6L-29.3,-115L-29.1,-120.8L-34.6,-118.6L-34.4,-124.4L-39.9,-122.1L-39.9,-127.6L-45.3,-125.4L-45.8,-130.3L-50.6,-129L-51,-134L-56,-132.5L-56.8,-136.8L-61.3,-136L-62.2,-140.2L-66.6,-139.4L-67.8,-143.3L-72,-142.8L-73.4,-146.4L-77.4,-146.2L-79,-149.5L-82.8,-149.7L-84.7,-152.5L-88.1,-153.1L-90.3,-155.6L-93.6,-156.5L-96,-158.5L-99,-159.8L-103.2,-162.7L-99,-159.8L-96.8,-157.5L-94,-155.8L-92.1,-153.1L-89,-151.9L-87.2,-148.9L-83.9,-148L-82.4,-144.6L-78.8,-144.2L-77.6,-140.4L-73.8,-140.3L-72.7,-136.2L-68.7,-136.5L-67.9,-132L-63.6,-132.6L-62.8,-128.2L-58.5,-128.8L-58.2,-123.7L-53.4,-125L-53,-120L-48.2,-121.3L-48.4,-115.5L-43.2,-117.3L-43.5,-111.4L-38.1,-113.6L-38.3,-107.7L-32.9,-109.9L-33.4,-103.6L-27.8,-105.9L-28.5,-99.5L-22.8,-102.1L-23.6,-95.3L-17.6,-98.4L-18.5,-91.5L-12.5,-94.6L-12.9,-88.3L-6.7,-91.7L-6.3,-86.7L-1,-88.8L0.2,-85L4.8,-85.9ZM6.4,-94.7L6.7,-93.7L10.8,-91.6L13.3,-94.6L17.8,-91.3L19.8,-95.8L24.7,-91.1L26.3,-96.9L31.2,-92.4L32.6,-99L37.4,-94.7L38.8,-101.2L43.7,-96.5L45,-103.3L49.6,-99.6L51.1,-105.5L55.6,-102.1L57.3,-107.7L61.9,-104.2L63.5,-110L68,-106.6L69.7,-112.1L73.9,-109.6L75.8,-114.3L80,-112.1L82,-116.6L86.2,-114.2L88.2,-118.8L92.3,-116.7L94.4,-120.9L98.4,-119.3L100.6,-123.1L104.3,-122.2L106.7,-125.4L110.4,-124.7L112.9,-127.6L116.5,-127.3L119.1,-129.8L122.5,-130L125.3,-132.1L128.4,-132.9L131.4,-134.5L136.4,-136.1L131.4,-134.5L128.1,-134.1L125,-132.9L121.5,-133L118.7,-131.2L115,-131.8L112.3,-129.5L108.6,-130.4L106,-127.7L102.2,-128.9L99.7,-126L95.7,-127.8L93.3,-124.3L89.2,-126.4L87.1,-122.4L82.8,-125L80.7,-120.6L76.5,-123.1L74.4,-118.9L70.1,-121.7L68.1,-117.1L63.5,-120.6L61.8,-115.2L57.2,-119L55.4,-113.6L50.9,-117.2L49.1,-111.8L44.5,-115.7L42.8,-110L37.8,-114.9L36.5,-108.2L31.7,-112.6L30.2,-106.4L25.3,-111L23.9,-104.5L19.3,-108.3L18,-101.6L13.7,-104.1L12,-98.8L8.2,-99.8L6.1,-95.8ZM7.4,-102.5L7.9,-103.5L7,-108.1L3.1,-107.7L3.1,-113.9L-1.8,-112L-0.9,-119.5L-6.8,-116.1L-6.1,-123.3L-12.5,-119L-12.3,-125.5L-18,-122.2L-17.9,-128.5L-23.5,-125.4L-23.6,-131.4L-29,-128.7L-29.1,-134.7L-34.6,-131.7L-35.1,-137L-40.1,-135L-40.7,-140.2L-45.7,-138.1L-46.6,-142.7L-51.2,-141.3L-52.3,-145.7L-56.9,-144.3L-57.9,-148.8L-62.4,-147.5L-63.8,-151.4L-67.9,-150.7L-69.6,-154.1L-73.5,-153.8L-75.3,-157L-79.1,-156.9L-81.2,-159.7L-84.7,-160L-87,-162.3L-90.3,-163L-92.9,-164.9L-96,-166L-100.1,-168.6L-96,-166L-93.6,-163.8L-90.8,-162.3L-88.6,-159.7L-85.5,-158.7L-83.6,-155.7L-80.2,-155.1L-78.6,-151.7L-74.9,-151.5L-73.4,-147.9L-69.6,-147.9L-68.4,-143.9L-64.3,-144.4L-63.4,-139.9L-59,-140.9L-58.1,-136.2L-53.7,-137.3L-52.9,-132.5L-48.4,-133.8L-48,-128.3L-43,-130.3L-42.6,-124.8L-37.7,-126.8L-37.8,-120.5L-32.4,-123.1L-32.4,-117.1L-27,-119.7L-27.2,-113.3L-21.6,-116.3L-22,-109.7L-16.3,-112.8L-17.3,-105.1L-11.1,-109.1L-11.5,-102.2L-5.2,-106.4L-4.7,-101.1L0.8,-104L2.3,-100.3L6.8,-101.6ZM8.4,-110.3L8.7,-109.2L12.8,-107L15.3,-109.9L19.8,-106L21.7,-110.9L26.7,-105.3L28.1,-112.2L32.9,-107.2L34.2,-114.3L39.1,-109.1L40.4,-116.1L45.1,-111.5L46.5,-118.3L51,-114.4L52.6,-120.4L57,-117L58.8,-122.3L63.1,-119L64.8,-124.5L69.1,-121.6L71,-126.5L75.1,-123.9L77.2,-128.5L81.1,-126.7L83.2,-130.7L87.1,-129L89.4,-132.7L93.1,-131.5L95.5,-134.9L99.1,-133.9L101.6,-137L105.1,-136.6L107.7,-139.2L111.1,-139.2L113.8,-141.3L116.9,-142L119.8,-143.6L124.3,-144.9L119.8,-143.6L116.6,-143.3L113.5,-142.2L110.1,-142.5L107.2,-140.6L103.7,-141.4L101,-139.1L97.2,-140.3L94.7,-137.5L90.9,-139L88.4,-136L84.5,-137.8L82.2,-134.2L78.1,-136.4L75.9,-132.8L71.7,-135.5L69.6,-131.1L65.4,-134.1L63.4,-129.4L58.9,-133L57.1,-127.8L52.7,-131.4L50.9,-126.1L46.3,-130.2L44.6,-124.5L39.8,-129.4L38.3,-123L33.4,-128.1L32.2,-121.1L27.2,-126.3L25.9,-119.4L21,-124.5L19.9,-117.1L15.6,-120.1L13.9,-114.3L10.2,-115.4L8.1,-111.3ZM9.5,-118L10.1,-118.9L9.1,-123.5L5.1,-123.3L4.9,-129.1L0.1,-127.6L0.9,-135L-4.8,-132L-4.2,-139.1L-10.6,-135.1L-10.3,-141.7L-16.2,-138.5L-16.2,-144.7L-21.7,-142L-21.8,-148L-27.4,-145.3L-27.6,-151.1L-33.1,-148.6L-33.5,-154.1L-38.8,-151.8L-39,-157.5L-44.3,-155.2L-44.9,-160.5L-50,-158.6L-51,-163.1L-55.7,-161.7L-56.8,-166.1L-61.3,-165.1L-62.4,-169.5L-67,-168.4L-68.4,-172.3L-72.6,-171.7L-74.2,-175.4L-78.2,-175.1L-80.2,-178.1L-84,-178.3L-86.1,-181L-89.6,-181.5L-91.9,-184L-95.3,-184.8L-98,-186.7L-101.1,-187.9L-105.5,-190.7L-101.1,-187.9L-98.6,-185.7L-95.8,-184.1L-93.6,-181.4L-90.4,-180.4L-88.4,-177.4L-85,-176.6L-83.2,-173.3L-79.6,-172.9L-78.2,-169L-74.2,-169.2L-72.9,-165.1L-68.8,-165.5L-67.9,-160.9L-63.4,-161.9L-62.4,-157.3L-58,-158.2L-57.2,-153.3L-52.6,-154.4L-52.2,-148.9L-47.2,-150.7L-47,-144.9L-41.7,-147.2L-41.5,-141.4L-36.3,-143.4L-36.3,-137.4L-31,-139.7L-31,-133.4L-25.6,-136L-25.6,-129.7L-20.1,-132.4L-20.4,-125.8L-14.6,-128.9L-15.4,-121.4L-9.3,-125L-9.5,-118.5L-3.2,-122.4L-2.5,-117.4L2.9,-119.7L4.4,-116L8.9,-117ZM10.7,-125.7L11.1,-124.6L15.1,-122.7L17.4,-125.7L21.9,-122.4L23.8,-126.9L28.8,-121.9L30,-128.3L35.3,-122.7L36.1,-130.2L41,-125.6L41.9,-132.8L46.8,-128.4L47.9,-134.8L52.8,-130.6L53.8,-137.2L58.6,-133.2L59.8,-139.4L64.3,-136.2L65.8,-141.6L70.3,-138.2L71.7,-144.1L76.1,-141.1L77.6,-146.2L81.9,-143.8L83.6,-148.5L87.7,-146.4L89.5,-150.9L93.5,-148.9L95.5,-153L99.3,-151.7L101.4,-155.4L105.2,-154.1L107.3,-157.7L111,-156.8L113.3,-160L116.8,-159.5L119.2,-162.3L122.6,-162.1L125.1,-164.7L128.4,-165L131,-167L134.1,-167.9L136.9,-169.5L142,-171.2L136.9,-169.5L133.7,-169L130.8,-167.8L127.4,-167.8L124.7,-166L121.1,-166.4L118.6,-164.1L115,-164.8L112.5,-162.3L108.7,-163.4L106.4,-160.5L102.5,-161.9L100.3,-158.5L96.4,-160.2L94.2,-156.7L90.1,-158.8L88.2,-154.7L84,-157.1L82.1,-152.9L77.8,-155.5L76,-151L71.5,-154.1L69.9,-149L65.3,-152.8L63.8,-147.3L59.3,-150.6L57.8,-145.3L53,-149.4L51.7,-143.4L46.8,-147.9L45.6,-141.6L40.7,-145.9L39.6,-139.4L34.5,-144.5L33.4,-137.8L28.2,-143.2L27.5,-135.6L22.6,-139.9L21.7,-132.8L17.5,-135.2L16,-129.8L12.3,-130.7L10.3,-126.8ZM11.9,-133.3L12.7,-134.1L12.3,-138.7L8.4,-139.1L9.1,-144.9L4.1,-144L5.8,-150.9L-0.3,-148.8L1.3,-155.6L-5.2,-153L-3.4,-160L-10.3,-156.9L-8.8,-163.7L-15.4,-160.9L-14.3,-167.1L-20.3,-165.1L-19.6,-170.9L-25.4,-169.1L-24.7,-174.8L-30.3,-173.3L-29.9,-178.7L-35.5,-177.1L-34.9,-182.7L-40.4,-181.3L-40.3,-186.4L-45.5,-185.3L-45.5,-190.2L-50.4,-189.4L-50.7,-194L-55.5,-193.4L-56.2,-197.6L-60.6,-197.4L-61.4,-201.4L-65.7,-201.4L-66.9,-204.9L-70.7,-205.4L-72,-208.8L-75.8,-209.4L-77.5,-212.4L-80.9,-213.3L-82.9,-216L-86,-217.3L-88.3,-219.6L-91.1,-221.2L-95.3,-224.7L-91.1,-221.2L-89.1,-218.7L-86.5,-216.7L-84.7,-213.9L-81.8,-212.3L-80.3,-209.1L-77,-207.9L-75.9,-204.3L-72.3,-203.5L-71.2,-199.8L-67.5,-199.2L-66.9,-194.9L-62.8,-194.8L-62.3,-190.4L-58,-190.4L-57.9,-185.6L-53.3,-186L-53.3,-181L-48.5,-181.8L-48.7,-176.5L-43.7,-177.4L-44.3,-171.8L-38.8,-173.2L-39.5,-167.5L-34.2,-168.7L-34.8,-162.9L-29.3,-164.5L-30.2,-158.5L-24.5,-160.1L-25.6,-153.9L-19.7,-155.9L-21.3,-149L-14.9,-151.6L-16.9,-144.2L-10.2,-147.1L-11.8,-140.3L-5.3,-143L-6.4,-136.6L0.1,-139.4L0.1,-134.3L5.6,-135.8L6.6,-132.1L11.2,-132.5ZM13.3,-140.9L13.6,-139.8L17.6,-137.6L20,-140.6L24.5,-136.7L26.4,-141.4L31.3,-136L32.6,-142.7L37.6,-137.2L38.7,-144.6L43.4,-139.9L44.7,-146.8L49.3,-142.4L50.8,-148.5L55.3,-144.3L56.8,-150.7L61.1,-147.2L62.8,-152.8L67.2,-149L68.8,-154.6L73.1,-151.3L74.8,-156.7L78.9,-154.3L80.8,-158.8L84.8,-156.5L86.9,-160.7L90.8,-158.8L92.9,-162.8L96.7,-161.1L98.9,-164.9L102.6,-163.8L104.9,-167L108.5,-166.3L110.9,-169L114.4,-168.6L116.9,-171.2L120.2,-171.2L122.9,-173.3L126,-174L128.9,-175.5L133.5,-176.9L128.9,-175.5L125.7,-175.2L122.7,-174.1L119.3,-174.4L116.5,-172.6L113,-173.3L110.3,-171.1L106.7,-172L104.2,-169.4L100.5,-170.8L98,-167.9L94.1,-169.9L91.8,-166.4L87.9,-168.6L85.7,-164.8L81.7,-167.2L79.6,-163.1L75.4,-165.8L73.4,-161.5L69,-165.1L67.2,-160L62.8,-163.8L61.1,-158.2L56.7,-162L55,-156.6L50.3,-161.2L48.8,-155.2L44.2,-159.4L42.7,-153.3L37.9,-158.3L36.5,-151.8L31.5,-157.4L30.4,-150L25.6,-155L24.5,-147.7L20.3,-150.6L18.7,-144.9L15.1,-146L12.9,-142.1ZM14.6,-148.5L15.3,-149.4L14.3,-153.9L10.5,-153.9L10.4,-159.7L5.6,-158.3L6.3,-165.3L0.5,-162.4L1.2,-169.4L-4.9,-166L-4.4,-172.7L-10.5,-169.2L-10.3,-175.5L-16.1,-172.6L-15.8,-178.9L-21.6,-176L-21.8,-181.7L-27.1,-179.4L-27.1,-185.3L-32.7,-182.8L-33.1,-188.1L-38.1,-186.3L-38.9,-191L-43.8,-189.6L-44.6,-194.2L-49.3,-192.9L-50.4,-197.2L-54.9,-196.3L-56.1,-200.3L-60.4,-199.6L-61.9,-203.3L-65.9,-203.1L-67.7,-206.3L-71.5,-206.4L-73.6,-209.2L-77.1,-209.7L-79.4,-212.1L-82.7,-213L-85.3,-215L-88.4,-216.2L-92.5,-218.9L-88.4,-216.2L-86,-213.9L-83.2,-212.3L-81.1,-209.6L-77.9,-208.4L-76.1,-205.4L-72.7,-204.6L-71.1,-201.1L-67.4,-200.8L-66,-197L-62.1,-197.1L-61,-192.9L-56.8,-193.3L-55.9,-188.8L-51.5,-189.6L-50.8,-184.7L-46.2,-185.8L-45.6,-180.8L-41,-181.9L-40.6,-176.6L-35.6,-178.3L-35.7,-172.2L-30.3,-174.6L-30.3,-168.8L-25,-170.9L-25.4,-164.3L-19.7,-167.1L-20,-160.7L-14.4,-163.4L-15.1,-156.4L-9.2,-159.5L-9.9,-152.5L-3.7,-155.9L-4.1,-149.4L2,-152.9L2.7,-148L8,-150.2L9.6,-146.6L14,-147.5ZM16.1,-156L16.5,-155L20.9,-153L23.1,-156.4L28.2,-152.6L29.6,-157.8L35.5,-152.3L36,-159.7L41.4,-155.1L41.9,-162.7L47.3,-158.2L48,-165.2L53,-161.8L54,-168.1L59,-164.6L60.1,-170.7L65,-167.4L66.2,-173.2L70.9,-170.6L72.3,-175.9L76.7,-173.7L78.2,-178.7L82.6,-176.8L84.3,-181.5L88.5,-179.9L90.3,-184.3L94.3,-183.1L96.3,-186.9L100.2,-186.3L102.4,-189.7L105.9,-189.6L108.4,-192.5L111.8,-192.8L114.4,-195.3L117.5,-196.3L120.3,-198.2L124.5,-199.9L120.3,-198.2L117,-197.6L114,-196.2L110.4,-196.1L107.7,-194L104,-194.4L101.5,-191.8L97.5,-192.8L95.2,-189.6L91.1,-191L89,-187.3L84.7,-189.2L82.8,-185.2L78.3,-187.3L76.6,-182.9L71.9,-185.5L70.3,-180.8L65.6,-183.6L64.1,-178.5L59.1,-181.9L57.9,-176.1L52.9,-179.7L51.7,-173.7L46.6,-177.5L45.5,-171.6L40.1,-176.1L39.3,-169.2L33.7,-174.3L33,-167.2L27.4,-172.2L27.1,-164.1L22.4,-166.8L21.4,-160.6L17.4,-161.5L15.7,-157ZM17.6,-163.5L18.4,-164.4L18.2,-169.2L14.1,-169.5L15.2,-175.8L9.8,-174.7L12,-182.3L5.1,-179.4L6.9,-186.5L0.1,-183.7L1.1,-190L-5,-188L-4.1,-194L-10.2,-192.1L-9.3,-198.2L-15.4,-196.2L-14.9,-201.8L-20.6,-200.4L-20.1,-205.9L-25.7,-204.6L-25.3,-210.1L-30.7,-208.9L-30.9,-213.7L-35.9,-213L-36.2,-217.7L-41.1,-217.1L-41.9,-221.3L-46.2,-221.4L-47.1,-225.4L-51.5,-225.5L-52.7,-229L-56.6,-229.7L-58.2,-232.8L-61.8,-233.8L-63.7,-236.6L-67,-237.9L-69.4,-240.2L-72.3,-241.9L-75.9,-245L-72.3,-241.9L-70.2,-239.2L-67.6,-237.2L-65.9,-234.1L-62.8,-232.6L-61.4,-229.2L-58,-228L-56.9,-224.3L-53.2,-223.5L-52.5,-219.2L-48.4,-218.9L-47.7,-214.6L-43.5,-214.4L-43.4,-209.5L-38.7,-209.8L-38.7,-204.7L-34,-205.2L-34.4,-199.7L-29,-200.8L-29.5,-195.1L-24.1,-196.3L-24.8,-190.5L-19.3,-191.8L-20.4,-185.4L-14.5,-187.2L-15.6,-180.9L-9.7,-182.5L-10.8,-176.2L-4.8,-178.1L-6.6,-171L0.2,-173.7L-1.8,-166.5L5.5,-169.7L5.1,-164.2L11.2,-166.2L12.1,-162.2L16.8,-162.6ZM19.2,-170.9L19.6,-169.9L23.8,-167.8L26.1,-170.9L30.9,-167.1L32.5,-172.2L38,-166.5L38.7,-174.1L44,-169.1L44.8,-176.3L49.7,-172.4L50.8,-178.8L55.8,-174.5L56.7,-181.3L61.6,-177.4L62.7,-183.7L67.4,-180.3L68.7,-186.2L73.3,-183.1L74.7,-188.5L79.1,-185.9L80.7,-191L85,-188.8L86.8,-193.3L90.7,-191.8L92.7,-195.9L96.5,-194.9L98.7,-198.3L102.4,-197.7L104.7,-200.9L108.2,-200.6L110.6,-203.3L114,-203.5L116.6,-205.9L119.7,-206.8L122.5,-208.5L126.6,-210.1L122.5,-208.5L119.2,-208.1L116.3,-206.8L112.8,-206.9L110.1,-204.9L106.5,-205.4L103.9,-202.9L100.1,-203.9L97.7,-201.1L93.8,-202.3L91.5,-199.1L87.4,-200.9L85.4,-197.2L81.1,-199.5L79.2,-195.1L74.7,-198L73.1,-193.2L68.4,-196.4L66.9,-191.1L62.2,-194.7L60.7,-189.2L55.8,-193.2L54.6,-187.1L49.5,-191.7L48.4,-185.2L43.5,-189.4L42.2,-183.3L37,-188.3L36.2,-181.1L30.8,-186.4L30.2,-178.6L25.7,-181.4L24.5,-175.4L20.7,-176.3L18.8,-172ZM20.9,-178.4L21.6,-179.3L21,-183.9L17.2,-184.1L17.8,-190.2L12.6,-188.6L14.4,-196.3L8,-193.1L9.1,-199.8L2.7,-196.6L3.4,-202.9L-2.5,-200.2L-1.7,-206.7L-7.7,-203.9L-7.4,-209.7L-13,-207.5L-12.8,-213.1L-18.2,-211.2L-18.1,-216.6L-23.4,-214.8L-23.8,-219.6L-28.7,-218.3L-29.2,-223.1L-34,-221.9L-34.5,-226.6L-39.2,-225.6L-40.2,-229.6L-44.5,-229.2L-45.6,-233L-49.7,-232.8L-51.2,-236.1L-55,-236.3L-56.7,-239.3L-60.3,-239.9L-62.3,-242.5L-65.6,-243.4L-68,-245.5L-71,-246.9L-74.6,-249.6L-71,-246.9L-68.8,-244.5L-66.1,-242.7L-64.3,-239.9L-61.2,-238.6L-59.7,-235.4L-56.3,-234.6L-55,-231L-51.4,-230.6L-50.4,-226.5L-46.4,-226.6L-45.7,-222.3L-41.5,-222.5L-41.1,-217.7L-36.5,-218.5L-36.2,-213.6L-31.6,-214.5L-31.4,-209.5L-26.7,-210.5L-26.9,-204.8L-21.7,-206.4L-22,-200.7L-16.7,-202.5L-17.2,-196.5L-11.8,-198.5L-12.7,-191.9L-6.8,-194.6L-7.6,-188.1L-1.8,-190.6L-3.1,-183.6L3.1,-186.5L1.8,-179.5L8.7,-183.3L8.7,-178L14.4,-180.3L15.6,-176.6L20.2,-177.4ZM22.6,-185.7L23,-184.6L27.1,-182.5L29.4,-185.5L34.1,-181.4L35.6,-186.8L41.1,-180.7L41.7,-188.4L46.8,-183.6L47.7,-190.5L52.6,-186.1L53.5,-193L58.3,-189.1L59.4,-195.3L64.1,-191.4L65.3,-197.6L69.9,-194.1L71.3,-199.8L75.5,-197.2L77.2,-202.1L81.3,-199.9L83.1,-204.4L87.1,-202.4L89,-206.7L92.9,-205L94.8,-209.2L98.6,-207.7L100.7,-211.5L104.3,-210.7L106.5,-213.9L110,-213.5L112.4,-216.2L115.7,-216.3L118.3,-218.6L121.3,-219.4L124.1,-221.1L128.2,-222.6L124.1,-221.1L120.9,-220.8L118,-219.5L114.6,-219.7L111.9,-217.7L108.3,-218.4L105.8,-215.9L102.1,-217L99.8,-214.1L95.8,-215.8L93.7,-212.3L89.6,-214.4L87.6,-210.6L83.5,-212.8L81.5,-208.8L77.3,-211.2L75.5,-206.9L71.2,-209.7L69.5,-205L64.8,-208.6L63.4,-203L58.7,-207.1L57.4,-201.1L52.6,-205.3L51.3,-199.3L46.3,-204.1L45.2,-197.6L40.2,-202.4L39.3,-195.5L34,-201.2L33.4,-193L28.9,-196.3L27.8,-190.1L24.1,-191.1L22.2,-186.8ZM24.4,-193.1L25.1,-194L24.9,-198.7L20.9,-199.1L21.8,-205.2L16.6,-204L18.8,-211.7L12,-208.6L13.6,-215.5L6.9,-212.5L7.7,-218.6L1.6,-216.3L2.5,-222.5L-3.5,-220.3L-2.6,-226.5L-8.6,-224.4L-7.9,-230.2L-13.7,-228.3L-13.4,-233.8L-18.8,-232.3L-18.8,-237.4L-24,-236.2L-24.3,-241L-29.1,-240.2L-29.9,-244.2L-34.3,-244L-35.1,-248.1L-39.5,-247.9L-40.7,-251.5L-44.6,-251.9L-46.1,-255.2L-49.8,-255.8L-51.8,-258.5L-55,-259.7L-57.4,-261.9L-60.3,-263.4L-63.7,-266.2L-60.3,-263.4L-58.3,-260.8L-55.6,-258.9L-53.9,-255.9L-50.9,-254.5L-49.6,-251L-46.1,-250.1L-45,-246.4L-41.3,-245.8L-40.7,-241.5L-36.5,-241.5L-35.9,-237.1L-31.7,-237L-31.6,-232.1L-26.9,-232.7L-27.1,-227.4L-22.1,-228.4L-22.6,-222.7L-17.3,-224L-18,-218L-12.4,-219.7L-13.4,-213.5L-7.5,-215.5L-8.6,-209.1L-2.6,-211.2L-3.8,-204.7L2.1,-206.7L0.3,-199.6L6.9,-202.4L5.1,-195.2L12.3,-198.7L12,-193.4L17.9,-195.4L18.9,-191.5L23.6,-192.2ZM26.2,-200.4L26.6,-199.3L30.7,-196.6L33.1,-199.9L37.6,-195.7L39.6,-200.3L44.7,-194.3L45.8,-202.1L50.7,-196.7L51.9,-204L56.6,-199.4L58,-205.9L62.6,-201.6L64.1,-207.9L68.5,-204.5L70.2,-210L74.5,-206.7L76.3,-212.2L80.5,-209.2L82.4,-214L86.4,-211.8L88.5,-216.1L92.3,-214.3L94.6,-218.2L98.4,-216.6L100.6,-220.3L104.3,-219.2L106.7,-222.3L110.2,-221.7L112.8,-224.4L116.2,-224.4L118.9,-226.6L122,-227.3L124.9,-228.8L128.8,-230L124.9,-228.8L121.6,-228.7L118.6,-227.6L115.1,-228L112.3,-226.1L108.7,-227.1L106,-224.7L102.3,-226L99.8,-223.2L95.9,-225.1L93.5,-221.7L89.6,-223.8L87.3,-220.2L83.2,-222.7L81,-218.7L76.8,-221.8L74.9,-217L70.4,-220.8L68.6,-215.7L64.2,-219.4L62.3,-214.2L57.7,-218.8L56.1,-212.6L51.4,-217.3L49.9,-211L45,-216.5L43.7,-209.3L38.6,-215.4L37.5,-207.5L33.4,-210.4L31.7,-204.4L28,-205.9L25.9,-201.5ZM28.2,-207.6L28.9,-208.4L29.3,-213.7L25.2,-214L26.8,-220.6L21.2,-219.3L22.9,-226L16.4,-223.7L17.9,-230.2L11.2,-227.8L12.3,-233.7L6.2,-232L7.3,-237.9L1.3,-236.2L1.8,-241.6L-3.6,-240.5L-3.3,-245.7L-8.8,-244.5L-9,-249.1L-13.7,-248.8L-14.4,-252.9L-18.8,-252.9L-19.7,-256.8L-23.8,-257.1L-25.1,-260.6L-28.9,-261.2L-30.6,-264.1L-34,-265.3L-36.2,-267.8L-39.2,-269.3L-41.8,-271.8L-39.2,-269.3L-37.3,-266.5L-34.7,-264.5L-33.2,-261.3L-30.2,-259.8L-29.2,-256.1L-25.6,-255.1L-25,-251L-21,-250.5L-20.7,-246.1L-16.5,-245.8L-16.4,-241.1L-11.8,-241.3L-12.5,-235.7L-7.3,-236.5L-8,-231L-2.6,-231.9L-3.8,-225.8L2,-227.4L0.8,-221.2L6.6,-222.8L4.8,-215.9L11.1,-218L9.4,-211.3L15.9,-213.6L15.1,-207.8L21.6,-210.1L22.2,-206L27.4,-206.8ZM30.2,-214.9L30.3,-213.7L33.9,-209.9L36.7,-212.9L40.6,-206.7L43,-212.5L46.9,-206.7L49.2,-213.3L53,-207.8L55.4,-214.5L59.1,-210.1L61.6,-215.4L65.2,-211.4L67.7,-216.6L71.3,-213L73.9,-217.7L77.5,-214.3L80.1,-218.5L83.5,-216.1L86.3,-219.8L89.7,-217.6L92.4,-220.8L95.7,-219.4L98.6,-222L101.8,-221.1L104.7,-223.1L107.9,-223.2L110.9,-224.4L114.1,-224.8L110.9,-224.4L107.7,-224.9L104.6,-224.3L101.3,-225.5L98.4,-223.9L95,-225.8L92.1,-223.7L88.7,-226.1L85.8,-223.2L82.4,-226.1L79.6,-223L76,-226.5L73.4,-222.4L69.7,-226.3L67.1,-221.9L63.4,-226.4L60.8,-221.7L57.2,-226.3L54.6,-221.1L50.8,-227.1L48.3,-220.9L44.5,-226.7L42.1,-220.2L38.4,-225.2L36.1,-218.3L32.6,-220.5L30,-216ZM32.2,-222L33,-222.9L33.6,-228.2L29.6,-228.8L32.2,-236.2L25.6,-234L27.5,-240.8L20.6,-238.3L21.9,-244.4L15.6,-242.6L16.6,-248.4L10.6,-246.9L11.1,-252.1L5.6,-251.2L5.5,-255.8L0.6,-255.4L0.1,-259.6L-4.4,-259.7L-5.4,-263.4L-9.5,-263.9L-11,-267.1L-14.5,-268.1L-16.6,-270.7L-19.7,-272.2L-21.8,-274.2L-19.7,-272.2L-18.1,-269.2L-15.4,-267.2L-14.3,-263.7L-11.1,-262.3L-10.4,-258.2L-6.6,-257.4L-6.4,-252.9L-2.2,-252.5L-2.5,-247.6L2.2,-247.6L1.4,-242.1L6.7,-242.8L5.4,-236.8L11.1,-237.9L9.6,-231.6L15.6,-233.1L13.4,-226.1L20,-228.3L18.1,-221.6L25.4,-224.4L26.2,-220.5L31.4,-221.2ZM34.4,-229.2L34.6,-228.1L38.8,-224.7L41.3,-227.8L46.3,-221.5L47.8,-228.4L52.3,-223.8L53.9,-230.5L58.4,-225.8L60,-232.3L64.3,-228.8L66.1,-234.4L70.3,-230.9L72.2,-236.5L76.2,-233.7L78.3,-238.4L82.2,-236.2L84.5,-240.3L88.1,-239L90.6,-242.3L94,-241.8L96.7,-244.4L99.9,-244.8L102.7,-246.6L105.4,-247.3L102.7,-246.6L99.3,-246.8L96.3,-245.7L92.8,-246.6L90,-244.6L86.2,-246.3L83.7,-243.5L79.7,-245.9L77.4,-242.2L73.3,-245.3L71.1,-240.9L66.8,-244.9L64.7,-239.9L60.4,-243.9L58.4,-238.8L53.8,-243.6L52.1,-237.4L47.5,-242.5L45.8,-236.3L41.1,-241.7L39.8,-233.8L36.1,-235.3L34.1,-230.3ZM36.6,-236.3L37.4,-237L38.6,-242.4L34.6,-243.3L37.8,-250.2L30.9,-248.7L32.9,-254.7L26.4,-253.5L27.7,-258.9L21.8,-258.2L23,-263.5L17.3,-263L17.9,-267.8L12.7,-267.6L12.9,-272.1L8.2,-272.4L7.5,-276.2L3.6,-277.2L2.4,-280.4L-1,-281.9L-2.9,-284.6L-5.8,-286.4L-7.5,-288.4L-5.8,-286.4L-4.4,-283.2L-2.1,-281L-1.2,-277.4L1.8,-275.6L2.1,-271.6L5.7,-270.4L5.2,-265.6L9.7,-265.1L8.6,-260L13.5,-259.8L12.1,-254.3L17.5,-254.5L15.8,-248.8L21.3,-249.2L19,-243L25.3,-243.9L22.7,-237.4L30,-239.4L30.3,-235.3L35.7,-235.6ZM38.8,-243.4L39,-242.4L43.1,-239.1L45.9,-242L50.5,-236.5L52.5,-243.1L56.8,-238.9L59,-244.7L63,-241.7L65.4,-246.6L69.4,-243.8L71.9,-248.2L75.7,-246.2L78.3,-250L82,-248.7L84.8,-251.8L88.3,-251.1L91.2,-253.6L94.5,-254L97.6,-255.7L99.9,-256.1L97.6,-255.7L94.1,-256L90.9,-254.9L87.3,-256.1L84.3,-254.1L80.5,-255.8L77.7,-253.2L73.8,-255.6L71.1,-252.2L67,-255.3L64.5,-251.1L60.3,-254.6L57.8,-250.2L53.5,-254.7L51.3,-249.1L46.8,-254.3L44.8,-247.5L41.1,-249.1L38.6,-244.4ZM41.2,-250.4L41.8,-251.1L42.4,-256.3L38.5,-257.3L39.7,-263.2L33.9,-262.4L34.6,-267.8L28.8,-267.1L29.2,-272.1L24,-271.9L23.5,-276.2L18.9,-276.6L18.2,-280.6L13.9,-281.3L12.5,-284.7L8.8,-286L6.8,-288.7L3.6,-290.5L2.1,-292.1L3.6,-290.5L5.2,-287.3L7.8,-285L8.9,-281.3L12.1,-279.7L12.6,-275.3L16.5,-274.4L16.6,-269.7L20.8,-269L20.3,-263.8L25.4,-263.9L24.3,-258.1L29.7,-258.5L28.6,-252.7L34.5,-253.6L35.2,-249.6L40.5,-249.8ZM43.6,-257.4L43.7,-256.8L47.6,-254L50.4,-256.5L54.4,-253.2L56.6,-257.9L60.5,-255.5L62.8,-259.7L66.5,-258L69,-261.5L72.6,-260.4L75.2,-263.3L78.6,-262.8L81.4,-265.1L84.6,-265.5L87.6,-267L89.3,-267.4L87.6,-267L84.2,-267.2L81.2,-266.2L77.7,-267.1L74.8,-265.3L71.2,-266.8L68.4,-264.3L64.7,-266.4L62,-263.4L58.1,-266.3L55.6,-262.4L51.6,-265.7L49.4,-261.1L45.8,-262.2L43.4,-258.1ZM46,-264.4L46.5,-264.8L47.1,-269.4L43.6,-270.5L43.7,-274.8L39.3,-275.1L39.2,-279.2L34.9,-279.6L34.4,-283.3L30.6,-284.2L29.4,-287.3L26.3,-288.8L24.5,-291.4L21.8,-293.2L20.8,-294.3L21.8,-293.2L23.1,-290.2L25.3,-288L26.3,-284.6L29.1,-283L29.3,-279L32.9,-277.9L32.6,-273.6L36.6,-272.8L36.2,-268.4L40.4,-267.9L41,-264.2L45.6,-264ZM48.6,-271.3L48.6,-270.8L52,-267.6L55.3,-269.7L58.7,-267.4L61.9,-270.4L65.2,-268.7L68.5,-271L71.8,-269.9L75.1,-271.7L78.4,-271.5L81.7,-272.5L83,-272.6L81.7,-272.5L78.3,-273.3L75,-272.9L71.7,-274.4L68.4,-273.1L65,-275.2L61.8,-273.2L58.4,-276L55.1,-273.4L51.8,-275.3L48.6,-271.8ZM51.2,-278.2L51.5,-278.5L51.3,-282.6L47.8,-283.2L46.8,-286.3L43.3,-286.9L41.9,-289.7L38.9,-290.7L36.9,-292.9L34.3,-294.4L33.7,-295L34.3,-294.4L35.9,-291.8L38.2,-290L39.4,-287L42.2,-285.7L43,-282.3L46.1,-281.4L46.9,-277.9L50.9,-277.9ZM53.9,-285.1L53.9,-284.8L56.3,-283.1L58.3,-284.7L60.5,-283.8L62.5,-285.4L64.8,-285L66.8,-286.2L68.9,-286.3L71,-287.1L71.7,-287.2L71,-287.1L68.8,-287.4L66.7,-286.9L64.4,-287.7L62.4,-286.7L60.1,-287.8L58.1,-286.5L55.8,-287.6L53.8,-285.3Z"/></g></g>
<g class="plant" data-i="1" transform="translate(540 830) rotate(15) scale(1.4)"><g class="sway" data-phase="5.53" data-amp="1.48"><path d="M2.3,-0.6L-2.8,-21L-7.9,-41.3L-12.9,-61.3L-17.9,-81.1L-22.9,-100.6L-27.8,-119.9L-32.6,-139L-37.5,-157.8L-42.2,-176.4L-47,-194.8L-51.7,-213L-56.3,-230.9L-61,-248.5L-65.5,-266L-70.1,-283.2L-74.6,-300.1L-75.4,-299.9L-71.2,-282.9L-66.9,-265.6L-62.5,-248.1L-58.2,-230.4L-53.7,-212.4L-49.3,-194.2L-44.8,-175.8L-40.2,-157.2L-35.6,-138.3L-31,-119.1L-26.3,-99.8L-21.6,-80.2L-16.9,-60.3L-12.1,-40.3L-7.2,-20L-2.3,0.6ZM-5.6,-23L-5.5,-23.9L-8,-28.3L-11.5,-26.7L-13.7,-33.1L-17.8,-28L-20.2,-32.8L-24.2,-28.5L-26.7,-33.2L-30.5,-29.2L-33.2,-32.8L-36.9,-29.9L-39.7,-32.9L-43.3,-30.5L-46.1,-33L-49.7,-31L-52.6,-32.8L-56.1,-31.5L-59.2,-32.4L-62.5,-31.9L-64.8,-32.3L-62.5,-31.9L-59.5,-30.5L-56.3,-30.3L-53.4,-28L-50,-28.8L-47.3,-25.9L-43.8,-27.3L-41.1,-23.9L-37.5,-25.9L-34.9,-22L-31.2,-24.7L-28.8,-19.7L-25,-23.4L-22.6,-18.1L-18.7,-21.9L-16.4,-15.8L-12.4,-21.2L-9.5,-18.6L-5.7,-22ZM-8.2,-33.4L-7.4,-32.5L-1.9,-30.8L-1,-34.9L5.7,-31.7L4.6,-38.5L11.2,-35.4L9.7,-42.7L15.9,-40.2L14.7,-47.1L20.5,-45L19.7,-51.4L25,-50L24.6,-55.9L29.5,-54.9L29.6,-60.2L33.9,-60.1L34.6,-64.6L38.3,-65.1L39.5,-69L42.9,-70L44.4,-73.5L47.1,-75.3L49.1,-78.1L51.4,-79.9L49.1,-78.1L45.9,-76.9L43.5,-74.6L39.7,-74L38,-70.9L33.9,-70.8L32.5,-67.2L27.9,-67.7L27.1,-63.5L21.9,-64.7L21.6,-59.7L16,-61.5L16.1,-56.1L10.1,-58.4L10.7,-52.2L4.3,-55.1L5.2,-48.5L-1.5,-51.7L-0.1,-44.6L-6.4,-47.3L-4.9,-40L-9.2,-40.1L-8.9,-34.3ZM-10.7,-43.8L-10.5,-45.1L-13,-50L-16.5,-47.8L-18.5,-56L-22.6,-50.2L-24.6,-58.1L-28.9,-50.7L-31.1,-57.9L-35.3,-51.4L-37.5,-57.9L-41.6,-52.2L-43.9,-58.1L-47.9,-52.8L-50.4,-58L-54.3,-53.2L-56.8,-57.7L-60.7,-53.8L-63.2,-58L-67,-54.5L-69.7,-57.6L-73.3,-54.9L-76.2,-57.4L-79.7,-55.5L-82.6,-57.3L-86.1,-55.9L-89.2,-56.7L-92.5,-56.2L-95.7,-56.7L-92.5,-56.2L-89.5,-54.7L-86.3,-54.5L-83.4,-52.2L-80.1,-53L-77.3,-50.1L-73.8,-51.7L-71.2,-48L-67.6,-50.2L-65.1,-45.7L-61.4,-49L-58.9,-44.2L-55.1,-47.7L-52.8,-41.9L-48.9,-46.2L-46.7,-40L-42.7,-44.9L-40.5,-38.2L-36.4,-43.7L-34.3,-36.3L-30.2,-42.5L-28.2,-34.2L-24,-41.2L-21.8,-34.4L-17.5,-41.6L-14.7,-38.5L-10.9,-42.5ZM-13.2,-54.1L-12.3,-52.9L-7,-51.2L-6.2,-55.4L0.6,-51.6L-0.3,-58L7.5,-53.1L4.8,-61.8L11.8,-57.9L9.8,-65.7L16.1,-62.6L14.5,-70L20.9,-66.8L19.4,-74L25.4,-71.2L24.2,-78.1L29.7,-76.2L28.9,-82.3L34.4,-80.4L33.7,-86.4L38.9,-84.9L38.5,-90.6L43.1,-89.8L43.4,-94.7L47.6,-94.4L48.1,-98.9L51.8,-99.3L52.9,-103.1L56.2,-104L57.6,-107.4L60.3,-109L62.2,-111.8L65.2,-114.1L62.2,-111.8L59,-110.7L56.7,-108.5L53.1,-108L51.4,-105L47.5,-105L46.1,-101.5L41.6,-102.2L40.8,-98L36,-99.1L35.6,-94.4L30.2,-96.3L30.3,-90.9L24.7,-93.1L25.1,-87.3L19.3,-89.7L19.8,-83.9L13.5,-86.9L14.5,-80.3L8,-83.7L9.3,-76.7L2.7,-80.2L4,-73.3L-3,-77.2L-1.1,-69.5L-8.8,-74.3L-6.1,-65.6L-12,-68.1L-10.2,-60.5L-14.4,-60.9L-14.1,-55.3ZM-15.7,-64.3L-15.5,-65.8L-18.1,-70.8L-21.8,-68.4L-24,-76.1L-28.1,-71.1L-30.1,-79.9L-34.6,-72.2L-36.7,-80.3L-41.2,-72.7L-43.4,-80.5L-47.8,-73.5L-50,-80.8L-54.4,-74.1L-56.8,-80.2L-61,-74.6L-63.4,-80.6L-67.6,-75.1L-70.1,-80.5L-74.1,-76L-76.8,-80.7L-80.7,-76.5L-83.5,-80.5L-87.3,-77L-90.1,-80.5L-93.9,-77.6L-96.9,-80L-100.5,-78.1L-103.6,-79.8L-107.1,-78.6L-110.3,-79.4L-113.7,-78.9L-117.7,-79.5L-113.7,-78.9L-110.6,-77.4L-107.3,-77.3L-104.3,-75.1L-100.8,-75.9L-97.9,-73L-94.4,-74.4L-91.6,-70.6L-87.9,-73.1L-85.2,-68.6L-81.4,-71.6L-78.9,-66.5L-75,-70.2L-72.5,-64.7L-68.5,-69.1L-66.1,-62.6L-62,-67.7L-59.6,-61.1L-55.5,-66.2L-53.3,-58.6L-49,-64.9L-46.9,-57L-42.5,-63.7L-40.5,-55.2L-36.1,-62.3L-34,-53.6L-29.5,-61.4L-27.1,-55.6L-22.7,-62.2L-19.9,-58.8L-16,-62.9ZM-18.3,-74.5L-17.1,-73.5L-11.7,-72.9L-11.6,-77.3L-4.2,-74.9L-6.1,-81.2L2,-78.1L-1,-85.5L6.9,-82.6L3.3,-90.5L10.7,-88.1L7.6,-95.6L14.9,-93.2L11.8,-100.6L19,-98.4L16.4,-105.4L22.8,-103.8L20.5,-110.6L26.6,-109.3L24.9,-115.5L30.6,-114.7L29.2,-120.5L34.6,-119.9L33.6,-125.4L38.6,-125.3L37.9,-130.4L42.7,-130.4L42.1,-135.5L46.7,-135.8L46.3,-140.6L50.3,-141.4L50.7,-145.6L54.3,-146.7L54.8,-150.8L58,-152.3L59.1,-155.8L61.6,-158L63.2,-161L66.4,-164.5L63.2,-161L60.3,-159.2L58.2,-156.6L54.8,-155.3L53.4,-152.1L49.5,-151.3L48.6,-147.6L44.4,-147L43.9,-143L39,-143L39,-138.5L33.9,-138.8L34.2,-133.9L29,-134.3L29.4,-129.4L23.9,-130.1L24.8,-124.7L18.9,-125.7L20,-120.1L13.8,-121.4L15.4,-115.4L8.5,-117.3L10.4,-111L3.3,-113.2L5.9,-106.1L-1.7,-108.8L1.2,-101.6L-6.4,-104.2L-3.6,-97L-11.7,-100.1L-8.3,-92.4L-15.9,-95L-12.3,-87.1L-18.7,-88.6L-15.9,-81.3L-20.3,-81L-19.4,-75.6ZM-20.8,-84.7L-20.4,-86.1L-22.4,-90.8L-26.2,-89.2L-27.6,-96.4L-32.1,-92.3L-33,-101.4L-38.1,-94.8L-39.2,-103.2L-44.4,-96.4L-45.5,-104.6L-50.8,-97.8L-51.9,-106L-57.1,-99.4L-58.3,-107L-63.4,-100.7L-64.8,-108L-69.8,-102.2L-71.4,-108.5L-76.1,-103.5L-77.8,-109.6L-82.4,-105.1L-84.3,-110.4L-88.8,-106.4L-90.8,-111.3L-95.1,-107.9L-97.2,-112.4L-101.4,-109.4L-103.6,-113.8L-107.7,-110.8L-110.1,-114.3L-114.1,-112.1L-116.6,-115.2L-120.5,-113.5L-123.1,-116.2L-126.8,-115L-129.6,-116.8L-133.2,-116.3L-136.2,-117.4L-139.6,-117.5L-144.3,-118.8L-139.6,-117.5L-136.7,-115.8L-133.4,-115.3L-130.7,-113L-127.3,-113.1L-124.8,-110.1L-121.1,-111.1L-118.7,-107.6L-115,-109L-112.7,-105.1L-108.8,-106.9L-106.8,-102.2L-102.7,-104.8L-100.6,-100.2L-96.5,-102.9L-94.5,-97.8L-90.3,-101L-88.5,-95.2L-84.2,-98.8L-82.5,-92.6L-77.9,-96.9L-76.4,-90.2L-71.8,-94.8L-70.5,-87.2L-65.6,-92.8L-64.5,-84.7L-59.5,-90.7L-58.4,-82.4L-53.3,-88.8L-52.2,-80.3L-47.1,-86.8L-46.1,-78.2L-40.9,-84.9L-39.8,-76.6L-34.4,-84L-32.7,-78.1L-27.8,-83.6L-25.3,-80.2L-21.2,-83.2ZM-23.2,-94.7L-22.2,-93.6L-17,-92.8L-16.5,-97.1L-9.9,-94.8L-10.7,-100.6L-3.1,-97.2L-5.1,-104.2L2.6,-100.7L-0.6,-109L7.3,-105.2L4.1,-113.7L11.7,-110.2L8.8,-118.3L15.9,-115.5L13.5,-123L20.2,-120.5L18.2,-127.5L25,-125L22.9,-132.2L29.2,-130.1L27.6,-136.8L33.6,-135.1L32.4,-141.3L37.8,-140.3L37,-146.1L42.4,-145L41.7,-150.6L46.5,-150.2L46.3,-155.4L51,-155.2L51,-160L55.2,-160.3L55.7,-164.7L59.5,-165.4L60.3,-169.4L63.8,-170.5L64.9,-174.1L67.9,-175.7L69.5,-178.8L72.1,-180.9L74,-183.7L77.9,-187.2L74,-183.7L71,-182.1L68.8,-179.6L65.4,-178.4L63.6,-175.5L59.9,-174.7L58.5,-171.3L54.4,-170.9L53.4,-167.1L49,-167.1L48.3,-162.9L43.5,-163.3L43.4,-158.6L38.2,-159.3L38.2,-154.5L32.7,-155.6L33.2,-150.2L27.5,-151.5L28.1,-146L22,-147.8L23.1,-141.7L16.7,-143.9L18.1,-137.4L11.2,-140.1L13.1,-133.1L6.3,-135.7L8.1,-128.8L0.9,-131.8L3,-124.6L-4.7,-128.2L-1.9,-120.3L-10.1,-124.3L-7,-116.1L-15,-119.9L-12.2,-112L-19.1,-114.6L-16.3,-106.7L-22,-108.1L-20.3,-101.3L-24.6,-101.1L-24.3,-95.9ZM-25.7,-104.7L-25.3,-106.2L-27.3,-110.8L-31.1,-109L-32.3,-116.5L-36.9,-112L-37.6,-121.2L-42.7,-114.8L-43.5,-123.8L-48.8,-116.5L-49.8,-124.7L-55.1,-117.7L-56.2,-125.4L-61.3,-119.2L-62.5,-126.5L-67.4,-120.8L-68.7,-127.8L-73.6,-122.3L-75,-129L-79.8,-123.7L-81.3,-129.9L-86,-125L-87.6,-131L-92.1,-126.6L-93.9,-132.2L-98.4,-127.9L-100.3,-133L-104.6,-129.4L-106.6,-133.7L-110.8,-130.8L-113,-134.8L-117,-132.2L-119.3,-135.8L-123.2,-133.6L-125.7,-136.5L-129.4,-135L-132,-137.4L-135.6,-136.3L-138.4,-138.2L-141.8,-137.7L-144.8,-138.8L-148.1,-138.9L-153,-140.2L-148.1,-138.9L-145.2,-137.2L-142.1,-136.7L-139.4,-134.4L-136.1,-134.6L-133.6,-131.8L-130.1,-132.5L-127.7,-129.3L-124,-130.5L-121.8,-126.6L-118,-128.5L-115.9,-124.2L-112,-126.5L-110,-121.8L-105.9,-124.5L-104.1,-119.2L-99.9,-122.6L-98.2,-116.6L-93.9,-120.4L-92.3,-114.3L-87.8,-118.6L-86.3,-112L-81.8,-116.5L-80.4,-109.5L-75.8,-114.5L-74.5,-107.3L-69.7,-112.6L-68.5,-105.2L-63.6,-110.8L-62.5,-102.9L-57.5,-108.8L-56.7,-100.2L-51.6,-106.7L-50.8,-97.7L-45.4,-105L-44.4,-96.8L-39,-104.3L-37.5,-98.1L-32.6,-103.9L-30.2,-100.4L-26.1,-103.3ZM-28.2,-114.7L-27.2,-113.7L-22.1,-113.3L-21.9,-117.5L-15.2,-115.5L-16.4,-121.1L-8.6,-118.1L-11.3,-125L-3.5,-122L-7.1,-129.9L0.8,-126.8L-2.8,-134.5L4.4,-132.1L1.3,-139.5L8.1,-137.4L5.4,-144.3L12.2,-142.3L9.8,-149L16.3,-147.1L13.8,-153.9L19.9,-152.6L18.1,-158.6L23.8,-157.6L22.3,-163.5L27.7,-162.7L26.5,-168.3L31.7,-167.7L30.6,-173.1L35.5,-172.9L34.9,-177.9L39.5,-177.9L39,-182.7L43,-183.4L43.1,-187.6L47,-188.3L47.2,-192.5L50.6,-193.7L51.4,-197.4L54.3,-199L55.5,-202.2L57.9,-204.4L59.5,-207.2L63,-210.9L59.5,-207.2L56.7,-205.5L54.7,-203L51.5,-201.6L50,-198.6L46.4,-197.6L45.4,-194.3L41.2,-193.8L40.8,-189.8L36.5,-189.5L36.1,-185.5L31.2,-185.7L31.5,-181.1L26.5,-181.4L27,-176.6L21.4,-177.4L22.3,-172.2L16.7,-173.1L17.8,-167.7L11.8,-168.9L13.1,-163.3L7,-164.7L8.7,-158.8L1.8,-160.9L4,-154.4L-2.9,-156.5L-0.5,-149.9L-7.5,-152.2L-5,-145.4L-12.6,-148.2L-9.8,-141.2L-17.7,-144.2L-14.2,-136.5L-22.2,-139.7L-18.8,-132.1L-25.9,-134.4L-22.4,-126.8L-28.1,-127.7L-25.7,-121.2L-29.9,-120.7L-29.2,-115.7ZM-30.6,-124.6L-30.3,-125.9L-32.4,-131.1L-36.4,-128.9L-37.9,-136.1L-42.4,-131.9L-43.5,-140.9L-48.6,-134.8L-49.6,-143.9L-55.1,-136.1L-56.4,-144.3L-61.5,-137.6L-62.9,-145.3L-68,-139L-69.5,-146.4L-74.5,-140.4L-76.1,-147.5L-81,-141.7L-82.6,-148.7L-87.5,-143.3L-89.2,-149.8L-94,-144.5L-96,-150.3L-100.5,-146L-102.5,-151.4L-107,-147.4L-109.1,-152.4L-113.5,-148.8L-115.7,-153.5L-120,-150.2L-122.4,-154.1L-126.5,-151.6L-129,-155.1L-133,-153L-135.6,-156.1L-139.5,-154.4L-142.3,-156.8L-146,-155.7L-148.9,-157.6L-152.5,-157L-155.6,-158.1L-159.1,-158.2L-164.2,-159.5L-159.1,-158.2L-156,-156.6L-152.8,-156L-149.9,-153.7L-146.4,-153.9L-143.7,-151.1L-140.1,-151.8L-137.6,-148.4L-133.8,-149.9L-131.3,-146.1L-127.4,-147.9L-125.1,-143.7L-121.1,-145.9L-119,-141L-114.7,-144L-112.7,-138.7L-108.4,-142L-106.5,-136.3L-102,-140.1L-100.2,-134.2L-95.7,-138.2L-94.1,-131.2L-89.4,-136L-87.8,-129L-83,-134.3L-81.5,-126.8L-76.6,-132.3L-75.2,-124.6L-70.3,-130.3L-69,-122.3L-64,-128.3L-62.7,-120L-57.6,-126.5L-56.6,-117L-51.2,-124.5L-49.9,-116.6L-44.5,-123.9L-42.6,-118.1L-37.8,-123.6L-35.3,-119.7L-31,-123.2ZM-33.1,-134.4L-32,-133.3L-26.7,-132.5L-26.4,-136.9L-19.8,-134.7L-20.9,-140.6L-12.9,-137L-15.5,-144.3L-7.8,-141L-11.1,-149.1L-3.1,-145.5L-6.6,-153.8L0.9,-150.8L-2.2,-158.6L5,-155.8L2.3,-163.3L9.5,-160.5L6.8,-168L13.3,-166L11.3,-172.7L17.7,-170.8L15.8,-177.4L21.5,-176.2L20.3,-182L26,-180.8L24.7,-186.9L29.8,-186.3L29.2,-191.5L34,-191.3L33.7,-196.2L38.1,-196.4L38.1,-201.1L42.3,-201.4L42.6,-205.7L46.4,-206.5L47,-210.5L50.4,-211.7L51.4,-215.3L54.5,-216.9L55.8,-220.2L58.3,-222.2L60.1,-225.1L63.8,-228.7L60.1,-225.1L57.2,-223.4L55.1,-220.9L51.7,-219.7L50.1,-216.7L46.4,-215.8L45.2,-212.4L41.2,-211.9L40.3,-208.2L36,-207.9L35.5,-203.7L30.8,-203.9L30.5,-199.5L25.6,-199.9L25.7,-195.1L20.5,-195.9L20.9,-190.8L14.9,-192.2L16,-186.5L10.2,-187.8L11.2,-182.1L4.6,-184.2L6.4,-177.7L-0.2,-179.9L1.6,-173.3L-5.8,-176.3L-3.2,-169L-10.6,-171.9L-8.1,-164.6L-15.8,-167.9L-12.9,-160.3L-21.2,-164.1L-17.8,-156L-25.8,-159.5L-22.7,-151.7L-30,-154.5L-26.6,-146.4L-32.4,-147.7L-30.4,-141L-34.8,-140.8L-34.1,-135.5ZM-35.5,-144.2L-35.1,-145.6L-37.1,-150.5L-41,-148.8L-42.5,-155.3L-47,-151.8L-47.7,-160.9L-53,-154.4L-53.9,-163.3L-59.4,-156.2L-60.3,-164.8L-65.7,-157.9L-66.9,-165.5L-72.1,-159.3L-73.4,-166.8L-78.5,-161L-79.7,-168.4L-84.8,-162.7L-86.2,-169.7L-91.2,-164.1L-92.7,-170.7L-97.6,-165.8L-99.3,-171.7L-104,-167.2L-105.8,-172.9L-110.4,-168.8L-112.4,-173.7L-116.8,-170.4L-118.8,-175L-123.1,-172L-125.3,-176.3L-129.5,-173.5L-132,-176.9L-135.9,-175L-138.4,-178.2L-142.3,-176.6L-145,-179.2L-148.7,-178.1L-151.6,-180L-155.1,-179.6L-158.2,-180.7L-161.6,-180.9L-166.6,-182.3L-161.6,-180.9L-158.6,-179.2L-155.4,-178.5L-152.7,-176.2L-149.2,-176.3L-146.6,-173.4L-143,-174.2L-140.6,-170.7L-136.8,-172L-134.5,-168.3L-130.6,-169.8L-128.5,-165.3L-124.4,-167.8L-122.4,-162.9L-118.1,-165.6L-116.2,-160.5L-111.9,-163.6L-110.2,-157.6L-105.7,-161.5L-104.1,-155.2L-99.5,-159.2L-98,-152.5L-93.2,-157.2L-92,-149.8L-87,-155L-85.8,-147.5L-80.8,-153L-79.6,-145.4L-74.5,-151L-73.4,-143L-68.3,-148.8L-67.5,-140L-62.1,-146.8L-61.3,-137.9L-55.8,-144.9L-54.8,-136.6L-49.3,-143.8L-47.4,-138.5L-42.6,-143.2L-40.2,-139.7L-35.9,-142.8ZM-37.9,-153.9L-36.9,-152.8L-31.4,-151.6L-31.1,-156.2L-24,-153.4L-25.2,-159.6L-16.7,-155.2L-20,-163.7L-12.4,-160.3L-15.2,-168.2L-7.8,-165.1L-10.6,-173L-3.5,-170.2L-5.9,-177.6L1,-175L-1.4,-182.5L5.4,-180L3.2,-187.2L9.7,-185.1L7.8,-191.9L13.7,-190.4L12.5,-196.6L18.1,-195.5L17.2,-201.3L22.6,-200.3L21.8,-206.1L26.6,-205.7L26.5,-210.7L31,-210.7L31.1,-215.5L35.1,-216L35.6,-220.2L39.2,-221.3L40.2,-225L43.3,-226.5L44.8,-229.8L47.4,-231.9L49.2,-234.7L52.7,-238L49.2,-234.7L46.2,-233.1L44,-230.7L40.6,-229.5L38.8,-226.5L35,-225.7L33.7,-222.3L29.4,-222.1L28.6,-218.1L23.9,-218.3L23.6,-213.8L18.6,-214.3L18.6,-209.5L12.9,-210.7L13.4,-205.3L7.7,-206.6L8.4,-201L2.4,-202.7L3.4,-196.7L-3.3,-199L-1.6,-192.4L-8.6,-195.1L-6.7,-188.1L-14,-191.1L-11.9,-184L-19.1,-186.9L-16.9,-179.7L-24.5,-183.1L-21.9,-175.4L-29.6,-178.8L-26.8,-171L-35,-174.9L-31.3,-166.1L-37.4,-167.8L-35.1,-160.5L-39.7,-160.6L-38.9,-154.9ZM-40.3,-163.5L-40,-164.9L-42,-169.9L-45.8,-168.1L-47.2,-175.7L-51.8,-171L-52.7,-180.2L-57.9,-173.2L-59.1,-181.2L-64.2,-174.7L-65.4,-182.8L-70.5,-176.1L-71.8,-183.9L-76.8,-177.5L-78.4,-184.4L-83.2,-178.9L-84.8,-185.6L-89.5,-180.3L-91.3,-186.3L-95.9,-181.5L-97.6,-187.6L-102.2,-182.9L-104.1,-188.4L-108.5,-184.3L-110.7,-189L-114.9,-185.7L-117.1,-189.9L-121.2,-187L-123.6,-190.5L-127.6,-188.3L-130,-191.7L-133.9,-189.7L-136.6,-192.3L-140.3,-191L-143.2,-192.8L-146.7,-192.2L-149.7,-193.3L-153.1,-193.3L-157.6,-194.5L-153.1,-193.3L-150.2,-191.6L-147,-191L-144.2,-188.8L-140.8,-189L-138.2,-186L-134.7,-186.9L-132.3,-183.3L-128.5,-185L-126.1,-181.1L-122.3,-183L-120.1,-178.5L-116.1,-181L-114.1,-176.1L-109.9,-179L-108.1,-173.4L-103.7,-177.2L-102.1,-170.8L-97.5,-175.3L-95.9,-168.8L-91.4,-173.1L-89.9,-166.2L-85.2,-171.2L-83.7,-164.1L-79,-169.3L-77.8,-161.2L-72.8,-167.4L-71.7,-159.1L-66.6,-165.5L-65.4,-157.4L-60.4,-163.7L-59.3,-155L-54,-162.6L-52.3,-156.3L-47.4,-162.2L-45,-158.7L-40.7,-162.1ZM-42.7,-173.1L-41.9,-171.9L-36.6,-170.3L-35.9,-174.5L-29.5,-171.4L-30,-177.2L-21.6,-171.6L-24.8,-180.9L-17.3,-176.3L-19.9,-184.9L-12.5,-180.5L-15.1,-189L-8.5,-185.7L-10.1,-192.9L-4,-190.2L-5.5,-197.2L0.8,-194.3L-0.6,-201.3L5.4,-198.8L4.2,-205.5L9.6,-203.7L9.1,-209.4L14.1,-208.1L13.8,-213.7L18.7,-212.6L18.7,-217.7L23.2,-217.1L23.4,-221.9L27.5,-221.8L28.2,-226.1L31.9,-226.5L33,-230.3L36.2,-231.3L37.7,-234.5L40.4,-236.2L42.3,-238.9L45.7,-241.5L42.3,-238.9L39.3,-237.6L37,-235.5L33.5,-234.8L31.7,-231.9L27.8,-231.8L26.4,-228.4L22.1,-228.8L21.2,-224.8L16.5,-225.8L15.9,-221.3L10.9,-222.6L10.8,-217.6L5.5,-219.3L5.5,-214.1L0,-216L0.4,-210.3L-5.8,-213.2L-4.8,-206.8L-11.2,-209.9L-10,-203.1L-16.4,-206.2L-15.3,-199.7L-21.9,-203L-20.4,-195.8L-27.9,-200.4L-25.5,-192.2L-33.2,-196.9L-30.7,-188.5L-38.8,-193.8L-35.5,-184.4L-41,-186.3L-39.6,-179.3L-43.8,-179.6L-43.6,-174.2ZM-45.1,-182.6L-44.9,-184L-47.6,-188.7L-51.2,-186.3L-53.6,-193L-57.5,-188.8L-59.5,-197.9L-63.9,-190.1L-66,-199L-70.4,-191L-72.7,-198.2L-76.9,-191.6L-79.2,-198.5L-83.4,-192.1L-85.8,-198.9L-89.9,-192.9L-92.4,-198.9L-96.4,-193.3L-99,-199L-102.9,-194.1L-105.5,-199.1L-109.5,-194.6L-112.1,-199.6L-116,-195.3L-118.7,-199.7L-122.5,-195.9L-125.3,-199.5L-129,-196.5L-131.9,-199.8L-135.6,-196.9L-138.5,-199.7L-142.1,-197.4L-145,-199.8L-148.6,-197.9L-151.7,-199.4L-155.1,-198.4L-158.3,-199.2L-161.7,-198.8L-166.4,-199.4L-161.7,-198.8L-158.6,-197.4L-155.3,-197.3L-152.3,-195.4L-148.9,-196L-146,-193.2L-142.4,-194.7L-139.6,-191.6L-136,-193.5L-133.3,-189.7L-129.6,-192.1L-126.9,-188.2L-123.2,-190.8L-120.5,-186.1L-116.8,-189.7L-114.2,-184.4L-110.3,-188.5L-107.8,-183.1L-103.9,-187.2L-101.4,-181.5L-97.4,-186.2L-95,-179.8L-91,-184.8L-88.7,-177.9L-84.6,-183.8L-82.3,-176.5L-78.1,-182.6L-75.9,-175L-71.7,-181.4L-69.6,-172.5L-65.2,-180.5L-63.1,-171.8L-58.7,-180L-56.1,-174.8L-52,-180.7L-49.2,-177.3L-45.3,-181.1ZM-47.5,-192L-46.6,-190.8L-40.9,-188.9L-40.2,-193.4L-33.2,-189.8L-33.9,-196.1L-26.5,-192L-28.9,-200.4L-21.4,-196.1L-23.8,-204.6L-17,-201.3L-18.9,-209.1L-12.4,-206.1L-13.9,-213.5L-7.9,-211.2L-8.9,-217.9L-3.3,-216L-4,-222.3L1.4,-220.7L1,-226.6L6,-225.6L6,-230.9L10.6,-230.5L10.9,-235.5L14.9,-235.7L15.8,-239.9L19.3,-240.7L20.8,-244.3L23.6,-246L25.5,-248.9L28.5,-251.2L25.5,-248.9L22.2,-247.8L19.9,-245.5L16.1,-245L14.4,-241.8L10.1,-241.8L8.9,-238L4,-238.9L3.3,-234.5L-1.9,-235.7L-2.1,-230.6L-7.8,-232.5L-7.5,-226.8L-13.5,-229.1L-13,-223.1L-19.3,-225.7L-18.5,-219.4L-25.2,-222.6L-24,-215.6L-31.1,-219.4L-29.5,-211.9L-37.1,-216.4L-34.8,-208L-42.4,-212.4L-40.2,-204.2L-46.2,-206.4L-44.4,-198.8L-48.9,-199.2L-48.4,-193.2ZM-49.9,-201.4L-49.5,-202.7L-51.6,-208.3L-55.5,-206.5L-56.9,-214.8L-61.7,-209.4L-63,-218L-68.3,-210.8L-69.8,-218.4L-74.9,-211.9L-76.5,-219.3L-81.5,-213.3L-83.3,-220L-88.1,-214.6L-90.1,-220.5L-94.7,-215.9L-96.9,-221L-101.3,-217.1L-103.7,-221.4L-108,-218.3L-110.6,-221.8L-114.6,-219.5L-117.3,-222.4L-121.2,-220.7L-124.2,-222.7L-127.9,-221.8L-131,-223L-134.6,-222.8L-137.9,-223.6L-134.6,-222.8L-131.6,-220.9L-128.2,-220.4L-125.4,-217.9L-121.8,-218.3L-119.2,-214.9L-115.4,-216.2L-113,-212.2L-109,-214L-106.8,-209.3L-102.6,-212L-100.6,-206.5L-96.2,-210L-94.3,-203.6L-89.8,-207.9L-88.1,-200.8L-83.4,-205.9L-81.8,-198.3L-76.9,-204.1L-75.5,-195.9L-70.5,-201.8L-69.3,-193L-64.1,-200L-62.4,-192.9L-57.2,-199.7L-54.6,-196.2L-50.2,-200.1ZM-52.2,-210.7L-51.3,-209.7L-45.6,-208.6L-45,-212.9L-37.6,-209.9L-39.2,-216.6L-32.3,-214.1L-34.6,-221.5L-27.9,-219.4L-29.8,-226.3L-23.3,-224.3L-25.3,-231.4L-19.2,-229.8L-20.5,-236.2L-15,-235.3L-16,-241.2L-11.1,-241L-11.3,-246.2L-6.8,-246.3L-6.7,-251.1L-2.6,-251.6L-2.1,-256L1.4,-257.3L2.5,-261L5.2,-263.1L7,-266.2L9.3,-268.4L7,-266.2L3.8,-264.6L1.5,-262.1L-2.2,-261.2L-3.7,-257.8L-8.2,-257.6L-9,-253.5L-13.8,-253.8L-14.2,-249.2L-19.3,-249.8L-19.4,-244.9L-25.3,-246.3L-24.8,-240.7L-31,-242.5L-29.8,-236.2L-36.8,-238.7L-35.2,-232.1L-42,-234.4L-40.3,-227.7L-47.5,-230.4L-45.5,-223.3L-52.1,-225.4L-49.6,-217.8L-53.9,-217.5L-53.2,-211.7ZM-54.6,-220L-54.3,-221.2L-56.5,-226.7L-60.3,-224.8L-62,-232.6L-66.7,-227.2L-68.3,-235.2L-73.3,-228.3L-75,-235.6L-79.8,-229.8L-81.9,-235.7L-86.4,-230.7L-88.7,-236L-93.1,-231.8L-95.4,-236.5L-99.7,-232.9L-102.2,-237.1L-106.3,-234L-108.9,-237.8L-112.9,-235.1L-115.7,-238L-119.6,-236.1L-122.5,-238.3L-126.2,-237.1L-129.4,-238.2L-132.9,-237.9L-136,-238.6L-132.9,-237.9L-129.9,-236.1L-126.5,-235.7L-123.7,-233L-120.1,-233.6L-117.4,-230.3L-113.7,-231.7L-111.2,-227.5L-107.3,-229.8L-104.9,-225.2L-100.8,-227.9L-98.5,-222.9L-94.4,-226.1L-92.3,-220.3L-88,-224.1L-86,-217.7L-81.5,-222.1L-79.8,-214.8L-75,-220.6L-73.5,-212.3L-68.6,-218.8L-66.7,-211.9L-61.8,-218.2L-59.2,-214.8L-54.8,-218.8ZM-56.9,-229.2L-56.1,-228.1L-50.7,-226.4L-49.6,-230.5L-42.3,-226.3L-43.6,-233.6L-37.1,-230.5L-38.5,-238L-32,-234.8L-33.2,-242L-27.1,-239.2L-28.1,-246.3L-22.4,-244.1L-23.1,-250.6L-17.9,-249.2L-18,-255L-13.1,-254L-12.9,-259.2L-8.5,-258.9L-7.8,-263.5L-3.8,-263.7L-2.8,-268L0.7,-268.8L2.2,-272.3L5.1,-274L7.2,-276.8L9.7,-278.7L7.2,-276.8L3.9,-275.7L1.4,-273.4L-2.4,-272.9L-4.2,-269.8L-8.6,-270.1L-9.9,-266.3L-14.5,-267L-15.5,-262.7L-20.6,-264L-21,-259L-26.5,-260.8L-26.6,-255.4L-32.7,-257.9L-32.3,-251.8L-38.7,-254.9L-37.9,-248.2L-44.4,-251.4L-43.2,-244.3L-50,-247.7L-48.8,-240.7L-55.5,-244L-53.6,-235.9L-57.8,-236L-57.7,-230.3ZM-59.2,-238.3L-59,-239.4L-61.4,-244.4L-65,-242.2L-66.9,-249.6L-71.1,-244.3L-73.3,-250.3L-77.4,-245.1L-79.6,-250.8L-83.7,-245.8L-86.1,-250.9L-90,-246.6L-92.5,-250.8L-96.4,-247L-98.9,-251.2L-102.7,-247.8L-105.4,-250.9L-109,-248.6L-111.8,-251.2L-115.3,-249.2L-118.3,-251L-121.7,-249.7L-124.8,-250.6L-128.1,-250.2L-130.8,-250.6L-128.1,-250.2L-125.1,-248.7L-121.9,-248.4L-119.1,-246.1L-115.8,-246.8L-113.1,-243.8L-109.6,-245.3L-106.9,-241.9L-103.4,-243.9L-100.9,-239.4L-97.2,-242.5L-94.8,-237.7L-91,-240.9L-88.7,-235.5L-84.8,-239.4L-82.6,-233.4L-78.6,-238L-76.5,-231.8L-72.4,-236.7L-70.3,-230.3L-66,-236.6L-63.3,-233.3L-59.4,-237.3ZM-61.5,-247.4L-60.9,-246.8L-55.7,-246.1L-54.6,-249.9L-48.7,-248.4L-49.5,-254.4L-44.6,-254L-44.7,-259.2L-39.9,-259L-40,-264.2L-35.8,-264.6L-35.3,-269.1L-31.5,-269.9L-30.5,-273.9L-27.3,-275.4L-25.9,-278.9L-23.1,-280.9L-21.3,-283.9L-19.7,-285.4L-21.3,-283.9L-24.5,-282.4L-26.7,-279.9L-30.4,-278.8L-32.2,-275.7L-36.2,-275.2L-37.4,-271.4L-42,-271.4L-42.8,-267.2L-47.9,-267.8L-48.1,-263L-53.3,-263.7L-53.4,-258.7L-59.3,-260.1L-58.4,-254.1L-62.3,-253.3L-62.1,-248.1ZM-63.8,-256.4L-63.6,-257.1L-65.4,-261.5L-69,-260.8L-70.7,-265.5L-75.1,-262.7L-76.9,-266.9L-81.2,-264.5L-83.3,-268.1L-87.3,-266.4L-89.6,-269.2L-93.4,-268.1L-96,-270.3L-99.5,-269.8L-102.4,-271.1L-105.7,-271.3L-107.4,-271.9L-105.7,-271.3L-103,-269.4L-99.9,-268.6L-97.5,-266L-94.1,-266L-91.9,-262.8L-88.3,-263.5L-86.3,-259.6L-82.4,-261.2L-80.6,-256.6L-76.5,-258.6L-74.9,-253.8L-70.6,-256.3L-68.2,-253.5L-64.1,-255.7ZM-66.1,-265.4L-65.7,-264.9L-60.8,-264.2L-59.5,-267.9L-54.7,-267.3L-54.4,-272.4L-50.1,-272.4L-49.3,-276.8L-45.4,-277.3L-44.3,-281.3L-41,-282.6L-39.3,-285.9L-36.5,-287.7L-34.4,-290.6L-33.2,-291.6L-34.4,-290.6L-37.7,-289.2L-40.1,-286.9L-43.7,-286L-45.7,-283L-49.8,-282.9L-51.2,-279.2L-55.7,-279.4L-56.7,-275.2L-61.7,-276.1L-62.2,-271.3L-66.1,-270.8L-66.5,-265.9ZM-68.4,-274.3L-68.3,-274.7L-71.2,-278.8L-75.2,-277.1L-78.4,-279.6L-82.4,-278.1L-85.7,-279.9L-89.6,-279L-93,-280.1L-96.8,-279.8L-97.9,-280L-96.8,-279.8L-93.4,-278.2L-89.8,-277.8L-86.5,-275.6L-82.8,-276L-79.7,-273.1L-75.8,-274.2L-72.7,-271.2L-68.5,-273.8ZM-70.7,-283.1L-70.5,-282.9L-67.2,-282.8L-66.4,-285.5L-63.8,-286.1L-62.9,-288.7L-60.7,-289.8L-59.5,-292.1L-57.6,-293.5L-56.2,-295.5L-55.6,-296L-56.2,-295.5L-58.4,-294.4L-60.1,-292.7L-62.5,-291.9L-63.9,-289.9L-66.6,-289.4L-67.7,-286.9L-70.5,-286.6L-70.8,-283.3Z"/></g></g></g>
  <g class="plants" fill="#F3EEE2" opacity="0.96" filter="url(#cyanotote01-soft)"><g class="plant" data-i="0" transform="translate(420 820) rotate(-11) scale(2)"><g class="sway" data-phase="3.44" data-amp="1.45"><path d="M2.4,0L2.8,-20.4L3.7,-40.7L5,-60.7L6.7,-80.4L8.8,-100L11.4,-119.3L14.4,-138.4L17.8,-157.2L21.6,-175.8L25.9,-194.2L30.6,-212.4L35.7,-230.4L41.2,-248.1L47.2,-265.5L53.6,-282.8L60.4,-299.8L59.6,-300.2L52.5,-283.2L45.9,-266L39.7,-248.6L33.9,-230.9L28.5,-213L23.6,-194.8L19.1,-176.4L15,-157.8L11.3,-138.9L8.1,-119.8L5.3,-100.4L2.9,-80.8L0.9,-61L-0.6,-40.9L-1.7,-20.6L-2.4,0ZM0.7,-23L1.2,-23.8L0.3,-28.9L-3.7,-28.7L-3.7,-35.3L-9.2,-32.5L-9.8,-38L-15.2,-35.5L-16.2,-40.5L-21.2,-38.5L-22.4,-43.1L-27.1,-41.6L-28.6,-45.7L-33,-44.7L-34.8,-48.3L-39,-47.7L-41.3,-50.5L-45.1,-50.6L-47.8,-52.6L-51.2,-53.4L-53.2,-54.7L-51.2,-53.4L-48.8,-50.9L-45.7,-49.5L-43.8,-46.2L-40.3,-45.6L-38.7,-41.7L-34.7,-41.8L-33.4,-37.4L-29.1,-38.2L-28.1,-33.3L-23.6,-34.5L-22.8,-29.1L-18,-30.8L-17.6,-24.8L-12.5,-26.9L-12.3,-20.8L-6.5,-24L-4.7,-20.4L0.1,-22.1ZM1,-31.1L1.4,-30.1L6,-27.7L8.1,-30.9L13.8,-25.6L14.3,-32.8L19.1,-29.7L20.1,-35.7L24.9,-32.4L25.8,-38.6L30.3,-36.4L31.6,-41.5L35.9,-39.7L37.4,-44.2L41.4,-43L43.2,-47.2L46.9,-46.5L49,-50L52.4,-50.1L54.7,-53L57.8,-54L60.4,-56.2L62.7,-57.2L60.4,-56.2L57,-55.8L54.2,-54.3L50.5,-54.7L48,-52.3L44.1,-53.3L41.9,-50.1L37.7,-51.8L35.8,-48L31.5,-50.1L29.8,-45.7L25.2,-48.4L23.7,-43.6L18.6,-47.3L17.6,-41.5L12.6,-45L11.5,-39.4L6,-44.1L5.8,-36.3L2,-37L0.6,-32.1ZM1.5,-39.2L2.1,-40.1L1.7,-45.4L-2.3,-45L-1.6,-52L-7.1,-49.2L-6.4,-56.2L-12.7,-52.2L-12.3,-58.6L-18.1,-55.4L-18,-61.4L-23.6,-58.6L-23.7,-64.2L-29.1,-61.7L-29.8,-66.4L-34.6,-64.7L-35.4,-69.3L-40.1,-67.9L-41.4,-71.8L-45.6,-71L-47.3,-74.2L-51.2,-74L-53.3,-76.6L-56.8,-76.9L-59.3,-78.9L-62.4,-79.8L-65,-81.5L-62.4,-79.8L-60.3,-77.3L-57.4,-75.9L-55.6,-72.9L-52.4,-72.1L-50.9,-68.5L-47.3,-68.4L-46.2,-64.2L-42.2,-64.6L-41.5,-59.8L-37,-61.1L-36.5,-56L-31.9,-57.3L-31.9,-51.4L-26.8,-53.6L-27,-47.4L-21.5,-50.1L-22,-43.4L-16.4,-46.4L-17.3,-39L-11.3,-42.7L-11.4,-36.5L-5.4,-40.1L-4.1,-36.3L0.8,-38.2ZM2,-47.2L2.4,-46.1L6.9,-43.7L9.1,-47.2L14.3,-43.2L15.6,-48.7L21.2,-43.5L21.6,-51.4L26.8,-47.2L27.6,-53.9L32.7,-50.2L33.6,-56.7L38.4,-53.7L39.5,-59.6L44.3,-56.6L45.5,-62.3L50,-60L51.5,-65L55.8,-63L57.4,-67.9L61.6,-66.3L63.4,-70.7L67.2,-69.9L69.3,-73.4L73.1,-73L75.3,-76.3L78.7,-76.6L81.2,-79.2L84.3,-80.1L87.1,-82.2L90.5,-83.6L87.1,-82.2L83.7,-81.7L80.8,-80.2L77.2,-80.2L74.5,-78L70.7,-78.9L68.3,-76L64.3,-77L62.1,-73.7L57.8,-75.6L55.9,-71.5L51.4,-73.8L49.7,-69.4L45.1,-71.9L43.5,-67.1L38.6,-70.3L37.4,-64.8L32.4,-68.2L31.1,-62.7L25.9,-66.7L24.9,-60.5L19.6,-64.7L18.8,-58L13.1,-63.4L12.7,-55.7L7.9,-58.7L7,-52.2L3,-53.2L1.5,-48.3ZM2.5,-55.2L3.1,-56.2L2.6,-61L-1.5,-60.8L-0.7,-67.8L-6,-65.7L-4.8,-73.1L-11.4,-69.1L-10.5,-76.3L-16.9,-72.5L-16.7,-78.6L-22.4,-75.9L-22.4,-81.7L-27.9,-79.3L-27.8,-85.1L-33.3,-82.7L-33.5,-88.2L-38.8,-86L-39.3,-91L-44.3,-89.4L-45.1,-94.1L-49.8,-92.8L-51,-96.8L-55.2,-96.2L-56.8,-99.7L-60.8,-99.5L-62.7,-102.5L-66.3,-102.8L-68.5,-105.4L-71.9,-106.1L-74.4,-108.1L-77.5,-109.3L-80.7,-111.4L-77.5,-109.3L-75.3,-106.8L-72.5,-105.2L-70.6,-102.3L-67.4,-101.3L-65.7,-98L-62.2,-97.4L-60.9,-93.6L-57.1,-93.5L-56.1,-89.3L-51.9,-89.8L-51.3,-84.8L-46.7,-85.9L-46.3,-80.7L-41.5,-82.1L-41.5,-76.3L-36.4,-78.2L-36.5,-72.2L-31.1,-74.4L-31.3,-68.4L-25.9,-70.6L-26.3,-64.3L-20.8,-66.8L-21.8,-59.4L-15.5,-63L-16.8,-55.4L-10.3,-59.2L-10.3,-53.5L-4.2,-56.8L-2.9,-53L1.9,-54.3ZM3.2,-63.2L3.6,-62.1L7.9,-59.8L10.1,-63.2L15.2,-59L16.8,-64.2L22.3,-58.9L22.9,-66.5L28,-62.1L29,-69.1L33.9,-65.3L35,-71.7L39.8,-68.2L41.1,-74L45.6,-71.2L47.1,-76.6L51.7,-73.8L53.2,-79.3L57.5,-77L59.3,-81.6L63.5,-79.7L65.2,-84.4L69.3,-82.9L71.3,-86.9L75.1,-86.1L77.4,-89.4L81,-89.1L83.4,-92.1L86.8,-92.2L89.4,-94.7L92.5,-95.6L95.3,-97.5L99,-98.8L95.3,-97.5L92,-97.1L89,-95.7L85.4,-95.9L82.7,-93.7L79,-94.5L76.5,-91.8L72.6,-92.8L70.2,-89.8L66.1,-91.5L64,-87.7L59.6,-90.2L57.7,-85.9L53.3,-88.3L51.5,-83.7L46.8,-86.9L45.2,-81.8L40.6,-84.9L38.9,-79.9L34.2,-83.3L32.8,-77.6L27.8,-81.7L26.5,-75.6L21.3,-80.3L20.3,-73.6L14.8,-79L14.1,-71.4L9.5,-74.3L8.5,-67.7L4.6,-68.9L2.8,-64.3ZM3.9,-71.1L4.4,-72.1L3.3,-76.9L-0.7,-76.5L-1,-82.8L-5.9,-80.6L-5.4,-88.3L-11.6,-84L-11.6,-90.7L-17.3,-87.1L-17.3,-94L-23.2,-90L-23.6,-96.2L-29,-93.1L-29.4,-99.2L-35,-96L-35.5,-101.9L-40.8,-99L-41.8,-104L-46.6,-102L-47.8,-106.7L-52.6,-104.8L-53.9,-109.2L-58.4,-107.8L-59.9,-111.9L-64.3,-110.7L-66.1,-114.3L-70.2,-113.6L-72.1,-117.1L-76.1,-116.5L-78.3,-119.4L-82,-119.4L-84.4,-121.9L-87.9,-122.3L-90.7,-124.1L-93.9,-125.1L-97.8,-127.2L-93.9,-125.1L-91.4,-122.9L-88.4,-121.5L-86.1,-118.8L-82.8,-118L-80.8,-114.9L-77.2,-114.6L-75.5,-110.9L-71.6,-111.1L-69.9,-107.3L-66,-107.7L-64.6,-103.4L-60.4,-104.3L-59.2,-99.7L-54.7,-101L-53.8,-95.8L-49.1,-97.4L-48.3,-92.2L-43.5,-94.1L-43.1,-88L-37.8,-90.8L-37.6,-84.4L-32.3,-87.2L-31.9,-81L-26.6,-84L-26.8,-76.8L-20.9,-80.6L-20.9,-73.8L-15.2,-77.4L-15.6,-69.9L-9.4,-74.4L-8.6,-69L-3.1,-72.2L-1.3,-68.6L3.3,-70.2ZM4.6,-79L5,-78L9.2,-76L11.5,-79.2L16.3,-75.8L18,-80.5L23.4,-75.3L24.4,-82.1L29.7,-77.3L30.4,-84.6L35.5,-80.2L36.4,-87L41.5,-82.8L42.4,-89.6L47.2,-86.2L48.4,-92.3L53.3,-88.5L54.4,-94.8L59,-91.7L60.4,-97.2L64.9,-94.5L66.5,-99.6L70.9,-97.2L72.5,-102.1L76.7,-100.1L78.5,-104.7L82.6,-103.1L84.5,-107.2L88.6,-105.6L90.5,-109.7L94.4,-108.8L96.5,-112.3L100.3,-111.6L102.5,-114.8L106,-114.7L108.5,-117.4L111.9,-117.7L114.5,-119.9L117.6,-120.9L120.4,-122.6L125.1,-124.4L120.4,-122.6L117.2,-122.1L114.2,-120.7L110.7,-120.7L108,-118.7L104.4,-119.1L101.8,-116.7L98,-117.6L95.6,-114.6L91.7,-115.8L89.4,-112.6L85.3,-114.4L83.2,-110.6L79.1,-112.3L77.1,-108.5L72.7,-110.7L70.9,-106.5L66.4,-109L64.7,-104.4L60.1,-107.2L58.5,-102.2L53.9,-105.4L52.4,-100L47.4,-104L46.2,-97.9L41.3,-101.7L40,-96L34.8,-100.5L33.8,-94L28.6,-98.5L27.7,-91.8L22.3,-96.9L21.5,-89.8L16.3,-94.2L15.6,-86.8L11.2,-89.2L9.9,-83.5L6.1,-84.3L4.2,-80.1ZM5.5,-86.9L6.2,-87.9L5.5,-92.5L1.5,-92.3L1.6,-98.1L-3.2,-96.7L-2.2,-103.7L-7.9,-101.1L-7.1,-107.8L-13.3,-104.6L-12.5,-111.3L-18.5,-108.2L-18,-114.4L-23.9,-111.6L-23.6,-117.6L-29.3,-115L-29.1,-120.8L-34.6,-118.6L-34.4,-124.4L-39.9,-122.1L-39.9,-127.6L-45.3,-125.4L-45.8,-130.3L-50.6,-129L-51,-134L-56,-132.5L-56.8,-136.8L-61.3,-136L-62.2,-140.2L-66.6,-139.4L-67.8,-143.3L-72,-142.8L-73.4,-146.4L-77.4,-146.2L-79,-149.5L-82.8,-149.7L-84.7,-152.5L-88.1,-153.1L-90.3,-155.6L-93.6,-156.5L-96,-158.5L-99,-159.8L-103.2,-162.7L-99,-159.8L-96.8,-157.5L-94,-155.8L-92.1,-153.1L-89,-151.9L-87.2,-148.9L-83.9,-148L-82.4,-144.6L-78.8,-144.2L-77.6,-140.4L-73.8,-140.3L-72.7,-136.2L-68.7,-136.5L-67.9,-132L-63.6,-132.6L-62.8,-128.2L-58.5,-128.8L-58.2,-123.7L-53.4,-125L-53,-120L-48.2,-121.3L-48.4,-115.5L-43.2,-117.3L-43.5,-111.4L-38.1,-113.6L-38.3,-107.7L-32.9,-109.9L-33.4,-103.6L-27.8,-105.9L-28.5,-99.5L-22.8,-102.1L-23.6,-95.3L-17.6,-98.4L-18.5,-91.5L-12.5,-94.6L-12.9,-88.3L-6.7,-91.7L-6.3,-86.7L-1,-88.8L0.2,-85L4.8,-85.9ZM6.4,-94.7L6.7,-93.7L10.8,-91.6L13.3,-94.6L17.8,-91.3L19.8,-95.8L24.7,-91.1L26.3,-96.9L31.2,-92.4L32.6,-99L37.4,-94.7L38.8,-101.2L43.7,-96.5L45,-103.3L49.6,-99.6L51.1,-105.5L55.6,-102.1L57.3,-107.7L61.9,-104.2L63.5,-110L68,-106.6L69.7,-112.1L73.9,-109.6L75.8,-114.3L80,-112.1L82,-116.6L86.2,-114.2L88.2,-118.8L92.3,-116.7L94.4,-120.9L98.4,-119.3L100.6,-123.1L104.3,-122.2L106.7,-125.4L110.4,-124.7L112.9,-127.6L116.5,-127.3L119.1,-129.8L122.5,-130L125.3,-132.1L128.4,-132.9L131.4,-134.5L136.4,-136.1L131.4,-134.5L128.1,-134.1L125,-132.9L121.5,-133L118.7,-131.2L115,-131.8L112.3,-129.5L108.6,-130.4L106,-127.7L102.2,-128.9L99.7,-126L95.7,-127.8L93.3,-124.3L89.2,-126.4L87.1,-122.4L82.8,-125L80.7,-120.6L76.5,-123.1L74.4,-118.9L70.1,-121.7L68.1,-117.1L63.5,-120.6L61.8,-115.2L57.2,-119L55.4,-113.6L50.9,-117.2L49.1,-111.8L44.5,-115.7L42.8,-110L37.8,-114.9L36.5,-108.2L31.7,-112.6L30.2,-106.4L25.3,-111L23.9,-104.5L19.3,-108.3L18,-101.6L13.7,-104.1L12,-98.8L8.2,-99.8L6.1,-95.8ZM7.4,-102.5L7.9,-103.5L7,-108.1L3.1,-107.7L3.1,-113.9L-1.8,-112L-0.9,-119.5L-6.8,-116.1L-6.1,-123.3L-12.5,-119L-12.3,-125.5L-18,-122.2L-17.9,-128.5L-23.5,-125.4L-23.6,-131.4L-29,-128.7L-29.1,-134.7L-34.6,-131.7L-35.1,-137L-40.1,-135L-40.7,-140.2L-45.7,-138.1L-46.6,-142.7L-51.2,-141.3L-52.3,-145.7L-56.9,-144.3L-57.9,-148.8L-62.4,-147.5L-63.8,-151.4L-67.9,-150.7L-69.6,-154.1L-73.5,-153.8L-75.3,-157L-79.1,-156.9L-81.2,-159.7L-84.7,-160L-87,-162.3L-90.3,-163L-92.9,-164.9L-96,-166L-100.1,-168.6L-96,-166L-93.6,-163.8L-90.8,-162.3L-88.6,-159.7L-85.5,-158.7L-83.6,-155.7L-80.2,-155.1L-78.6,-151.7L-74.9,-151.5L-73.4,-147.9L-69.6,-147.9L-68.4,-143.9L-64.3,-144.4L-63.4,-139.9L-59,-140.9L-58.1,-136.2L-53.7,-137.3L-52.9,-132.5L-48.4,-133.8L-48,-128.3L-43,-130.3L-42.6,-124.8L-37.7,-126.8L-37.8,-120.5L-32.4,-123.1L-32.4,-117.1L-27,-119.7L-27.2,-113.3L-21.6,-116.3L-22,-109.7L-16.3,-112.8L-17.3,-105.1L-11.1,-109.1L-11.5,-102.2L-5.2,-106.4L-4.7,-101.1L0.8,-104L2.3,-100.3L6.8,-101.6ZM8.4,-110.3L8.7,-109.2L12.8,-107L15.3,-109.9L19.8,-106L21.7,-110.9L26.7,-105.3L28.1,-112.2L32.9,-107.2L34.2,-114.3L39.1,-109.1L40.4,-116.1L45.1,-111.5L46.5,-118.3L51,-114.4L52.6,-120.4L57,-117L58.8,-122.3L63.1,-119L64.8,-124.5L69.1,-121.6L71,-126.5L75.1,-123.9L77.2,-128.5L81.1,-126.7L83.2,-130.7L87.1,-129L89.4,-132.7L93.1,-131.5L95.5,-134.9L99.1,-133.9L101.6,-137L105.1,-136.6L107.7,-139.2L111.1,-139.2L113.8,-141.3L116.9,-142L119.8,-143.6L124.3,-144.9L119.8,-143.6L116.6,-143.3L113.5,-142.2L110.1,-142.5L107.2,-140.6L103.7,-141.4L101,-139.1L97.2,-140.3L94.7,-137.5L90.9,-139L88.4,-136L84.5,-137.8L82.2,-134.2L78.1,-136.4L75.9,-132.8L71.7,-135.5L69.6,-131.1L65.4,-134.1L63.4,-129.4L58.9,-133L57.1,-127.8L52.7,-131.4L50.9,-126.1L46.3,-130.2L44.6,-124.5L39.8,-129.4L38.3,-123L33.4,-128.1L32.2,-121.1L27.2,-126.3L25.9,-119.4L21,-124.5L19.9,-117.1L15.6,-120.1L13.9,-114.3L10.2,-115.4L8.1,-111.3ZM9.5,-118L10.1,-118.9L9.1,-123.5L5.1,-123.3L4.9,-129.1L0.1,-127.6L0.9,-135L-4.8,-132L-4.2,-139.1L-10.6,-135.1L-10.3,-141.7L-16.2,-138.5L-16.2,-144.7L-21.7,-142L-21.8,-148L-27.4,-145.3L-27.6,-151.1L-33.1,-148.6L-33.5,-154.1L-38.8,-151.8L-39,-157.5L-44.3,-155.2L-44.9,-160.5L-50,-158.6L-51,-163.1L-55.7,-161.7L-56.8,-166.1L-61.3,-165.1L-62.4,-169.5L-67,-168.4L-68.4,-172.3L-72.6,-171.7L-74.2,-175.4L-78.2,-175.1L-80.2,-178.1L-84,-178.3L-86.1,-181L-89.6,-181.5L-91.9,-184L-95.3,-184.8L-98,-186.7L-101.1,-187.9L-105.5,-190.7L-101.1,-187.9L-98.6,-185.7L-95.8,-184.1L-93.6,-181.4L-90.4,-180.4L-88.4,-177.4L-85,-176.6L-83.2,-173.3L-79.6,-172.9L-78.2,-169L-74.2,-169.2L-72.9,-165.1L-68.8,-165.5L-67.9,-160.9L-63.4,-161.9L-62.4,-157.3L-58,-158.2L-57.2,-153.3L-52.6,-154.4L-52.2,-148.9L-47.2,-150.7L-47,-144.9L-41.7,-147.2L-41.5,-141.4L-36.3,-143.4L-36.3,-137.4L-31,-139.7L-31,-133.4L-25.6,-136L-25.6,-129.7L-20.1,-132.4L-20.4,-125.8L-14.6,-128.9L-15.4,-121.4L-9.3,-125L-9.5,-118.5L-3.2,-122.4L-2.5,-117.4L2.9,-119.7L4.4,-116L8.9,-117ZM10.7,-125.7L11.1,-124.6L15.1,-122.7L17.4,-125.7L21.9,-122.4L23.8,-126.9L28.8,-121.9L30,-128.3L35.3,-122.7L36.1,-130.2L41,-125.6L41.9,-132.8L46.8,-128.4L47.9,-134.8L52.8,-130.6L53.8,-137.2L58.6,-133.2L59.8,-139.4L64.3,-136.2L65.8,-141.6L70.3,-138.2L71.7,-144.1L76.1,-141.1L77.6,-146.2L81.9,-143.8L83.6,-148.5L87.7,-146.4L89.5,-150.9L93.5,-148.9L95.5,-153L99.3,-151.7L101.4,-155.4L105.2,-154.1L107.3,-157.7L111,-156.8L113.3,-160L116.8,-159.5L119.2,-162.3L122.6,-162.1L125.1,-164.7L128.4,-165L131,-167L134.1,-167.9L136.9,-169.5L142,-171.2L136.9,-169.5L133.7,-169L130.8,-167.8L127.4,-167.8L124.7,-166L121.1,-166.4L118.6,-164.1L115,-164.8L112.5,-162.3L108.7,-163.4L106.4,-160.5L102.5,-161.9L100.3,-158.5L96.4,-160.2L94.2,-156.7L90.1,-158.8L88.2,-154.7L84,-157.1L82.1,-152.9L77.8,-155.5L76,-151L71.5,-154.1L69.9,-149L65.3,-152.8L63.8,-147.3L59.3,-150.6L57.8,-145.3L53,-149.4L51.7,-143.4L46.8,-147.9L45.6,-141.6L40.7,-145.9L39.6,-139.4L34.5,-144.5L33.4,-137.8L28.2,-143.2L27.5,-135.6L22.6,-139.9L21.7,-132.8L17.5,-135.2L16,-129.8L12.3,-130.7L10.3,-126.8ZM11.9,-133.3L12.7,-134.1L12.3,-138.7L8.4,-139.1L9.1,-144.9L4.1,-144L5.8,-150.9L-0.3,-148.8L1.3,-155.6L-5.2,-153L-3.4,-160L-10.3,-156.9L-8.8,-163.7L-15.4,-160.9L-14.3,-167.1L-20.3,-165.1L-19.6,-170.9L-25.4,-169.1L-24.7,-174.8L-30.3,-173.3L-29.9,-178.7L-35.5,-177.1L-34.9,-182.7L-40.4,-181.3L-40.3,-186.4L-45.5,-185.3L-45.5,-190.2L-50.4,-189.4L-50.7,-194L-55.5,-193.4L-56.2,-197.6L-60.6,-197.4L-61.4,-201.4L-65.7,-201.4L-66.9,-204.9L-70.7,-205.4L-72,-208.8L-75.8,-209.4L-77.5,-212.4L-80.9,-213.3L-82.9,-216L-86,-217.3L-88.3,-219.6L-91.1,-221.2L-95.3,-224.7L-91.1,-221.2L-89.1,-218.7L-86.5,-216.7L-84.7,-213.9L-81.8,-212.3L-80.3,-209.1L-77,-207.9L-75.9,-204.3L-72.3,-203.5L-71.2,-199.8L-67.5,-199.2L-66.9,-194.9L-62.8,-194.8L-62.3,-190.4L-58,-190.4L-57.9,-185.6L-53.3,-186L-53.3,-181L-48.5,-181.8L-48.7,-176.5L-43.7,-177.4L-44.3,-171.8L-38.8,-173.2L-39.5,-167.5L-34.2,-168.7L-34.8,-162.9L-29.3,-164.5L-30.2,-158.5L-24.5,-160.1L-25.6,-153.9L-19.7,-155.9L-21.3,-149L-14.9,-151.6L-16.9,-144.2L-10.2,-147.1L-11.8,-140.3L-5.3,-143L-6.4,-136.6L0.1,-139.4L0.1,-134.3L5.6,-135.8L6.6,-132.1L11.2,-132.5ZM13.3,-140.9L13.6,-139.8L17.6,-137.6L20,-140.6L24.5,-136.7L26.4,-141.4L31.3,-136L32.6,-142.7L37.6,-137.2L38.7,-144.6L43.4,-139.9L44.7,-146.8L49.3,-142.4L50.8,-148.5L55.3,-144.3L56.8,-150.7L61.1,-147.2L62.8,-152.8L67.2,-149L68.8,-154.6L73.1,-151.3L74.8,-156.7L78.9,-154.3L80.8,-158.8L84.8,-156.5L86.9,-160.7L90.8,-158.8L92.9,-162.8L96.7,-161.1L98.9,-164.9L102.6,-163.8L104.9,-167L108.5,-166.3L110.9,-169L114.4,-168.6L116.9,-171.2L120.2,-171.2L122.9,-173.3L126,-174L128.9,-175.5L133.5,-176.9L128.9,-175.5L125.7,-175.2L122.7,-174.1L119.3,-174.4L116.5,-172.6L113,-173.3L110.3,-171.1L106.7,-172L104.2,-169.4L100.5,-170.8L98,-167.9L94.1,-169.9L91.8,-166.4L87.9,-168.6L85.7,-164.8L81.7,-167.2L79.6,-163.1L75.4,-165.8L73.4,-161.5L69,-165.1L67.2,-160L62.8,-163.8L61.1,-158.2L56.7,-162L55,-156.6L50.3,-161.2L48.8,-155.2L44.2,-159.4L42.7,-153.3L37.9,-158.3L36.5,-151.8L31.5,-157.4L30.4,-150L25.6,-155L24.5,-147.7L20.3,-150.6L18.7,-144.9L15.1,-146L12.9,-142.1ZM14.6,-148.5L15.3,-149.4L14.3,-153.9L10.5,-153.9L10.4,-159.7L5.6,-158.3L6.3,-165.3L0.5,-162.4L1.2,-169.4L-4.9,-166L-4.4,-172.7L-10.5,-169.2L-10.3,-175.5L-16.1,-172.6L-15.8,-178.9L-21.6,-176L-21.8,-181.7L-27.1,-179.4L-27.1,-185.3L-32.7,-182.8L-33.1,-188.1L-38.1,-186.3L-38.9,-191L-43.8,-189.6L-44.6,-194.2L-49.3,-192.9L-50.4,-197.2L-54.9,-196.3L-56.1,-200.3L-60.4,-199.6L-61.9,-203.3L-65.9,-203.1L-67.7,-206.3L-71.5,-206.4L-73.6,-209.2L-77.1,-209.7L-79.4,-212.1L-82.7,-213L-85.3,-215L-88.4,-216.2L-92.5,-218.9L-88.4,-216.2L-86,-213.9L-83.2,-212.3L-81.1,-209.6L-77.9,-208.4L-76.1,-205.4L-72.7,-204.6L-71.1,-201.1L-67.4,-200.8L-66,-197L-62.1,-197.1L-61,-192.9L-56.8,-193.3L-55.9,-188.8L-51.5,-189.6L-50.8,-184.7L-46.2,-185.8L-45.6,-180.8L-41,-181.9L-40.6,-176.6L-35.6,-178.3L-35.7,-172.2L-30.3,-174.6L-30.3,-168.8L-25,-170.9L-25.4,-164.3L-19.7,-167.1L-20,-160.7L-14.4,-163.4L-15.1,-156.4L-9.2,-159.5L-9.9,-152.5L-3.7,-155.9L-4.1,-149.4L2,-152.9L2.7,-148L8,-150.2L9.6,-146.6L14,-147.5ZM16.1,-156L16.5,-155L20.9,-153L23.1,-156.4L28.2,-152.6L29.6,-157.8L35.5,-152.3L36,-159.7L41.4,-155.1L41.9,-162.7L47.3,-158.2L48,-165.2L53,-161.8L54,-168.1L59,-164.6L60.1,-170.7L65,-167.4L66.2,-173.2L70.9,-170.6L72.3,-175.9L76.7,-173.7L78.2,-178.7L82.6,-176.8L84.3,-181.5L88.5,-179.9L90.3,-184.3L94.3,-183.1L96.3,-186.9L100.2,-186.3L102.4,-189.7L105.9,-189.6L108.4,-192.5L111.8,-192.8L114.4,-195.3L117.5,-196.3L120.3,-198.2L124.5,-199.9L120.3,-198.2L117,-197.6L114,-196.2L110.4,-196.1L107.7,-194L104,-194.4L101.5,-191.8L97.5,-192.8L95.2,-189.6L91.1,-191L89,-187.3L84.7,-189.2L82.8,-185.2L78.3,-187.3L76.6,-182.9L71.9,-185.5L70.3,-180.8L65.6,-183.6L64.1,-178.5L59.1,-181.9L57.9,-176.1L52.9,-179.7L51.7,-173.7L46.6,-177.5L45.5,-171.6L40.1,-176.1L39.3,-169.2L33.7,-174.3L33,-167.2L27.4,-172.2L27.1,-164.1L22.4,-166.8L21.4,-160.6L17.4,-161.5L15.7,-157ZM17.6,-163.5L18.4,-164.4L18.2,-169.2L14.1,-169.5L15.2,-175.8L9.8,-174.7L12,-182.3L5.1,-179.4L6.9,-186.5L0.1,-183.7L1.1,-190L-5,-188L-4.1,-194L-10.2,-192.1L-9.3,-198.2L-15.4,-196.2L-14.9,-201.8L-20.6,-200.4L-20.1,-205.9L-25.7,-204.6L-25.3,-210.1L-30.7,-208.9L-30.9,-213.7L-35.9,-213L-36.2,-217.7L-41.1,-217.1L-41.9,-221.3L-46.2,-221.4L-47.1,-225.4L-51.5,-225.5L-52.7,-229L-56.6,-229.7L-58.2,-232.8L-61.8,-233.8L-63.7,-236.6L-67,-237.9L-69.4,-240.2L-72.3,-241.9L-75.9,-245L-72.3,-241.9L-70.2,-239.2L-67.6,-237.2L-65.9,-234.1L-62.8,-232.6L-61.4,-229.2L-58,-228L-56.9,-224.3L-53.2,-223.5L-52.5,-219.2L-48.4,-218.9L-47.7,-214.6L-43.5,-214.4L-43.4,-209.5L-38.7,-209.8L-38.7,-204.7L-34,-205.2L-34.4,-199.7L-29,-200.8L-29.5,-195.1L-24.1,-196.3L-24.8,-190.5L-19.3,-191.8L-20.4,-185.4L-14.5,-187.2L-15.6,-180.9L-9.7,-182.5L-10.8,-176.2L-4.8,-178.1L-6.6,-171L0.2,-173.7L-1.8,-166.5L5.5,-169.7L5.1,-164.2L11.2,-166.2L12.1,-162.2L16.8,-162.6ZM19.2,-170.9L19.6,-169.9L23.8,-167.8L26.1,-170.9L30.9,-167.1L32.5,-172.2L38,-166.5L38.7,-174.1L44,-169.1L44.8,-176.3L49.7,-172.4L50.8,-178.8L55.8,-174.5L56.7,-181.3L61.6,-177.4L62.7,-183.7L67.4,-180.3L68.7,-186.2L73.3,-183.1L74.7,-188.5L79.1,-185.9L80.7,-191L85,-188.8L86.8,-193.3L90.7,-191.8L92.7,-195.9L96.5,-194.9L98.7,-198.3L102.4,-197.7L104.7,-200.9L108.2,-200.6L110.6,-203.3L114,-203.5L116.6,-205.9L119.7,-206.8L122.5,-208.5L126.6,-210.1L122.5,-208.5L119.2,-208.1L116.3,-206.8L112.8,-206.9L110.1,-204.9L106.5,-205.4L103.9,-202.9L100.1,-203.9L97.7,-201.1L93.8,-202.3L91.5,-199.1L87.4,-200.9L85.4,-197.2L81.1,-199.5L79.2,-195.1L74.7,-198L73.1,-193.2L68.4,-196.4L66.9,-191.1L62.2,-194.7L60.7,-189.2L55.8,-193.2L54.6,-187.1L49.5,-191.7L48.4,-185.2L43.5,-189.4L42.2,-183.3L37,-188.3L36.2,-181.1L30.8,-186.4L30.2,-178.6L25.7,-181.4L24.5,-175.4L20.7,-176.3L18.8,-172ZM20.9,-178.4L21.6,-179.3L21,-183.9L17.2,-184.1L17.8,-190.2L12.6,-188.6L14.4,-196.3L8,-193.1L9.1,-199.8L2.7,-196.6L3.4,-202.9L-2.5,-200.2L-1.7,-206.7L-7.7,-203.9L-7.4,-209.7L-13,-207.5L-12.8,-213.1L-18.2,-211.2L-18.1,-216.6L-23.4,-214.8L-23.8,-219.6L-28.7,-218.3L-29.2,-223.1L-34,-221.9L-34.5,-226.6L-39.2,-225.6L-40.2,-229.6L-44.5,-229.2L-45.6,-233L-49.7,-232.8L-51.2,-236.1L-55,-236.3L-56.7,-239.3L-60.3,-239.9L-62.3,-242.5L-65.6,-243.4L-68,-245.5L-71,-246.9L-74.6,-249.6L-71,-246.9L-68.8,-244.5L-66.1,-242.7L-64.3,-239.9L-61.2,-238.6L-59.7,-235.4L-56.3,-234.6L-55,-231L-51.4,-230.6L-50.4,-226.5L-46.4,-226.6L-45.7,-222.3L-41.5,-222.5L-41.1,-217.7L-36.5,-218.5L-36.2,-213.6L-31.6,-214.5L-31.4,-209.5L-26.7,-210.5L-26.9,-204.8L-21.7,-206.4L-22,-200.7L-16.7,-202.5L-17.2,-196.5L-11.8,-198.5L-12.7,-191.9L-6.8,-194.6L-7.6,-188.1L-1.8,-190.6L-3.1,-183.6L3.1,-186.5L1.8,-179.5L8.7,-183.3L8.7,-178L14.4,-180.3L15.6,-176.6L20.2,-177.4ZM22.6,-185.7L23,-184.6L27.1,-182.5L29.4,-185.5L34.1,-181.4L35.6,-186.8L41.1,-180.7L41.7,-188.4L46.8,-183.6L47.7,-190.5L52.6,-186.1L53.5,-193L58.3,-189.1L59.4,-195.3L64.1,-191.4L65.3,-197.6L69.9,-194.1L71.3,-199.8L75.5,-197.2L77.2,-202.1L81.3,-199.9L83.1,-204.4L87.1,-202.4L89,-206.7L92.9,-205L94.8,-209.2L98.6,-207.7L100.7,-211.5L104.3,-210.7L106.5,-213.9L110,-213.5L112.4,-216.2L115.7,-216.3L118.3,-218.6L121.3,-219.4L124.1,-221.1L128.2,-222.6L124.1,-221.1L120.9,-220.8L118,-219.5L114.6,-219.7L111.9,-217.7L108.3,-218.4L105.8,-215.9L102.1,-217L99.8,-214.1L95.8,-215.8L93.7,-212.3L89.6,-214.4L87.6,-210.6L83.5,-212.8L81.5,-208.8L77.3,-211.2L75.5,-206.9L71.2,-209.7L69.5,-205L64.8,-208.6L63.4,-203L58.7,-207.1L57.4,-201.1L52.6,-205.3L51.3,-199.3L46.3,-204.1L45.2,-197.6L40.2,-202.4L39.3,-195.5L34,-201.2L33.4,-193L28.9,-196.3L27.8,-190.1L24.1,-191.1L22.2,-186.8ZM24.4,-193.1L25.1,-194L24.9,-198.7L20.9,-199.1L21.8,-205.2L16.6,-204L18.8,-211.7L12,-208.6L13.6,-215.5L6.9,-212.5L7.7,-218.6L1.6,-216.3L2.5,-222.5L-3.5,-220.3L-2.6,-226.5L-8.6,-224.4L-7.9,-230.2L-13.7,-228.3L-13.4,-233.8L-18.8,-232.3L-18.8,-237.4L-24,-236.2L-24.3,-241L-29.1,-240.2L-29.9,-244.2L-34.3,-244L-35.1,-248.1L-39.5,-247.9L-40.7,-251.5L-44.6,-251.9L-46.1,-255.2L-49.8,-255.8L-51.8,-258.5L-55,-259.7L-57.4,-261.9L-60.3,-263.4L-63.7,-266.2L-60.3,-263.4L-58.3,-260.8L-55.6,-258.9L-53.9,-255.9L-50.9,-254.5L-49.6,-251L-46.1,-250.1L-45,-246.4L-41.3,-245.8L-40.7,-241.5L-36.5,-241.5L-35.9,-237.1L-31.7,-237L-31.6,-232.1L-26.9,-232.7L-27.1,-227.4L-22.1,-228.4L-22.6,-222.7L-17.3,-224L-18,-218L-12.4,-219.7L-13.4,-213.5L-7.5,-215.5L-8.6,-209.1L-2.6,-211.2L-3.8,-204.7L2.1,-206.7L0.3,-199.6L6.9,-202.4L5.1,-195.2L12.3,-198.7L12,-193.4L17.9,-195.4L18.9,-191.5L23.6,-192.2ZM26.2,-200.4L26.6,-199.3L30.7,-196.6L33.1,-199.9L37.6,-195.7L39.6,-200.3L44.7,-194.3L45.8,-202.1L50.7,-196.7L51.9,-204L56.6,-199.4L58,-205.9L62.6,-201.6L64.1,-207.9L68.5,-204.5L70.2,-210L74.5,-206.7L76.3,-212.2L80.5,-209.2L82.4,-214L86.4,-211.8L88.5,-216.1L92.3,-214.3L94.6,-218.2L98.4,-216.6L100.6,-220.3L104.3,-219.2L106.7,-222.3L110.2,-221.7L112.8,-224.4L116.2,-224.4L118.9,-226.6L122,-227.3L124.9,-228.8L128.8,-230L124.9,-228.8L121.6,-228.7L118.6,-227.6L115.1,-228L112.3,-226.1L108.7,-227.1L106,-224.7L102.3,-226L99.8,-223.2L95.9,-225.1L93.5,-221.7L89.6,-223.8L87.3,-220.2L83.2,-222.7L81,-218.7L76.8,-221.8L74.9,-217L70.4,-220.8L68.6,-215.7L64.2,-219.4L62.3,-214.2L57.7,-218.8L56.1,-212.6L51.4,-217.3L49.9,-211L45,-216.5L43.7,-209.3L38.6,-215.4L37.5,-207.5L33.4,-210.4L31.7,-204.4L28,-205.9L25.9,-201.5ZM28.2,-207.6L28.9,-208.4L29.3,-213.7L25.2,-214L26.8,-220.6L21.2,-219.3L22.9,-226L16.4,-223.7L17.9,-230.2L11.2,-227.8L12.3,-233.7L6.2,-232L7.3,-237.9L1.3,-236.2L1.8,-241.6L-3.6,-240.5L-3.3,-245.7L-8.8,-244.5L-9,-249.1L-13.7,-248.8L-14.4,-252.9L-18.8,-252.9L-19.7,-256.8L-23.8,-257.1L-25.1,-260.6L-28.9,-261.2L-30.6,-264.1L-34,-265.3L-36.2,-267.8L-39.2,-269.3L-41.8,-271.8L-39.2,-269.3L-37.3,-266.5L-34.7,-264.5L-33.2,-261.3L-30.2,-259.8L-29.2,-256.1L-25.6,-255.1L-25,-251L-21,-250.5L-20.7,-246.1L-16.5,-245.8L-16.4,-241.1L-11.8,-241.3L-12.5,-235.7L-7.3,-236.5L-8,-231L-2.6,-231.9L-3.8,-225.8L2,-227.4L0.8,-221.2L6.6,-222.8L4.8,-215.9L11.1,-218L9.4,-211.3L15.9,-213.6L15.1,-207.8L21.6,-210.1L22.2,-206L27.4,-206.8ZM30.2,-214.9L30.3,-213.7L33.9,-209.9L36.7,-212.9L40.6,-206.7L43,-212.5L46.9,-206.7L49.2,-213.3L53,-207.8L55.4,-214.5L59.1,-210.1L61.6,-215.4L65.2,-211.4L67.7,-216.6L71.3,-213L73.9,-217.7L77.5,-214.3L80.1,-218.5L83.5,-216.1L86.3,-219.8L89.7,-217.6L92.4,-220.8L95.7,-219.4L98.6,-222L101.8,-221.1L104.7,-223.1L107.9,-223.2L110.9,-224.4L114.1,-224.8L110.9,-224.4L107.7,-224.9L104.6,-224.3L101.3,-225.5L98.4,-223.9L95,-225.8L92.1,-223.7L88.7,-226.1L85.8,-223.2L82.4,-226.1L79.6,-223L76,-226.5L73.4,-222.4L69.7,-226.3L67.1,-221.9L63.4,-226.4L60.8,-221.7L57.2,-226.3L54.6,-221.1L50.8,-227.1L48.3,-220.9L44.5,-226.7L42.1,-220.2L38.4,-225.2L36.1,-218.3L32.6,-220.5L30,-216ZM32.2,-222L33,-222.9L33.6,-228.2L29.6,-228.8L32.2,-236.2L25.6,-234L27.5,-240.8L20.6,-238.3L21.9,-244.4L15.6,-242.6L16.6,-248.4L10.6,-246.9L11.1,-252.1L5.6,-251.2L5.5,-255.8L0.6,-255.4L0.1,-259.6L-4.4,-259.7L-5.4,-263.4L-9.5,-263.9L-11,-267.1L-14.5,-268.1L-16.6,-270.7L-19.7,-272.2L-21.8,-274.2L-19.7,-272.2L-18.1,-269.2L-15.4,-267.2L-14.3,-263.7L-11.1,-262.3L-10.4,-258.2L-6.6,-257.4L-6.4,-252.9L-2.2,-252.5L-2.5,-247.6L2.2,-247.6L1.4,-242.1L6.7,-242.8L5.4,-236.8L11.1,-237.9L9.6,-231.6L15.6,-233.1L13.4,-226.1L20,-228.3L18.1,-221.6L25.4,-224.4L26.2,-220.5L31.4,-221.2ZM34.4,-229.2L34.6,-228.1L38.8,-224.7L41.3,-227.8L46.3,-221.5L47.8,-228.4L52.3,-223.8L53.9,-230.5L58.4,-225.8L60,-232.3L64.3,-228.8L66.1,-234.4L70.3,-230.9L72.2,-236.5L76.2,-233.7L78.3,-238.4L82.2,-236.2L84.5,-240.3L88.1,-239L90.6,-242.3L94,-241.8L96.7,-244.4L99.9,-244.8L102.7,-246.6L105.4,-247.3L102.7,-246.6L99.3,-246.8L96.3,-245.7L92.8,-246.6L90,-244.6L86.2,-246.3L83.7,-243.5L79.7,-245.9L77.4,-242.2L73.3,-245.3L71.1,-240.9L66.8,-244.9L64.7,-239.9L60.4,-243.9L58.4,-238.8L53.8,-243.6L52.1,-237.4L47.5,-242.5L45.8,-236.3L41.1,-241.7L39.8,-233.8L36.1,-235.3L34.1,-230.3ZM36.6,-236.3L37.4,-237L38.6,-242.4L34.6,-243.3L37.8,-250.2L30.9,-248.7L32.9,-254.7L26.4,-253.5L27.7,-258.9L21.8,-258.2L23,-263.5L17.3,-263L17.9,-267.8L12.7,-267.6L12.9,-272.1L8.2,-272.4L7.5,-276.2L3.6,-277.2L2.4,-280.4L-1,-281.9L-2.9,-284.6L-5.8,-286.4L-7.5,-288.4L-5.8,-286.4L-4.4,-283.2L-2.1,-281L-1.2,-277.4L1.8,-275.6L2.1,-271.6L5.7,-270.4L5.2,-265.6L9.7,-265.1L8.6,-260L13.5,-259.8L12.1,-254.3L17.5,-254.5L15.8,-248.8L21.3,-249.2L19,-243L25.3,-243.9L22.7,-237.4L30,-239.4L30.3,-235.3L35.7,-235.6ZM38.8,-243.4L39,-242.4L43.1,-239.1L45.9,-242L50.5,-236.5L52.5,-243.1L56.8,-238.9L59,-244.7L63,-241.7L65.4,-246.6L69.4,-243.8L71.9,-248.2L75.7,-246.2L78.3,-250L82,-248.7L84.8,-251.8L88.3,-251.1L91.2,-253.6L94.5,-254L97.6,-255.7L99.9,-256.1L97.6,-255.7L94.1,-256L90.9,-254.9L87.3,-256.1L84.3,-254.1L80.5,-255.8L77.7,-253.2L73.8,-255.6L71.1,-252.2L67,-255.3L64.5,-251.1L60.3,-254.6L57.8,-250.2L53.5,-254.7L51.3,-249.1L46.8,-254.3L44.8,-247.5L41.1,-249.1L38.6,-244.4ZM41.2,-250.4L41.8,-251.1L42.4,-256.3L38.5,-257.3L39.7,-263.2L33.9,-262.4L34.6,-267.8L28.8,-267.1L29.2,-272.1L24,-271.9L23.5,-276.2L18.9,-276.6L18.2,-280.6L13.9,-281.3L12.5,-284.7L8.8,-286L6.8,-288.7L3.6,-290.5L2.1,-292.1L3.6,-290.5L5.2,-287.3L7.8,-285L8.9,-281.3L12.1,-279.7L12.6,-275.3L16.5,-274.4L16.6,-269.7L20.8,-269L20.3,-263.8L25.4,-263.9L24.3,-258.1L29.7,-258.5L28.6,-252.7L34.5,-253.6L35.2,-249.6L40.5,-249.8ZM43.6,-257.4L43.7,-256.8L47.6,-254L50.4,-256.5L54.4,-253.2L56.6,-257.9L60.5,-255.5L62.8,-259.7L66.5,-258L69,-261.5L72.6,-260.4L75.2,-263.3L78.6,-262.8L81.4,-265.1L84.6,-265.5L87.6,-267L89.3,-267.4L87.6,-267L84.2,-267.2L81.2,-266.2L77.7,-267.1L74.8,-265.3L71.2,-266.8L68.4,-264.3L64.7,-266.4L62,-263.4L58.1,-266.3L55.6,-262.4L51.6,-265.7L49.4,-261.1L45.8,-262.2L43.4,-258.1ZM46,-264.4L46.5,-264.8L47.1,-269.4L43.6,-270.5L43.7,-274.8L39.3,-275.1L39.2,-279.2L34.9,-279.6L34.4,-283.3L30.6,-284.2L29.4,-287.3L26.3,-288.8L24.5,-291.4L21.8,-293.2L20.8,-294.3L21.8,-293.2L23.1,-290.2L25.3,-288L26.3,-284.6L29.1,-283L29.3,-279L32.9,-277.9L32.6,-273.6L36.6,-272.8L36.2,-268.4L40.4,-267.9L41,-264.2L45.6,-264ZM48.6,-271.3L48.6,-270.8L52,-267.6L55.3,-269.7L58.7,-267.4L61.9,-270.4L65.2,-268.7L68.5,-271L71.8,-269.9L75.1,-271.7L78.4,-271.5L81.7,-272.5L83,-272.6L81.7,-272.5L78.3,-273.3L75,-272.9L71.7,-274.4L68.4,-273.1L65,-275.2L61.8,-273.2L58.4,-276L55.1,-273.4L51.8,-275.3L48.6,-271.8ZM51.2,-278.2L51.5,-278.5L51.3,-282.6L47.8,-283.2L46.8,-286.3L43.3,-286.9L41.9,-289.7L38.9,-290.7L36.9,-292.9L34.3,-294.4L33.7,-295L34.3,-294.4L35.9,-291.8L38.2,-290L39.4,-287L42.2,-285.7L43,-282.3L46.1,-281.4L46.9,-277.9L50.9,-277.9ZM53.9,-285.1L53.9,-284.8L56.3,-283.1L58.3,-284.7L60.5,-283.8L62.5,-285.4L64.8,-285L66.8,-286.2L68.9,-286.3L71,-287.1L71.7,-287.2L71,-287.1L68.8,-287.4L66.7,-286.9L64.4,-287.7L62.4,-286.7L60.1,-287.8L58.1,-286.5L55.8,-287.6L53.8,-285.3Z"/></g></g>
<g class="plant" data-i="1" transform="translate(540 830) rotate(15) scale(1.4)"><g class="sway" data-phase="5.53" data-amp="1.48"><path d="M2.3,-0.6L-2.8,-21L-7.9,-41.3L-12.9,-61.3L-17.9,-81.1L-22.9,-100.6L-27.8,-119.9L-32.6,-139L-37.5,-157.8L-42.2,-176.4L-47,-194.8L-51.7,-213L-56.3,-230.9L-61,-248.5L-65.5,-266L-70.1,-283.2L-74.6,-300.1L-75.4,-299.9L-71.2,-282.9L-66.9,-265.6L-62.5,-248.1L-58.2,-230.4L-53.7,-212.4L-49.3,-194.2L-44.8,-175.8L-40.2,-157.2L-35.6,-138.3L-31,-119.1L-26.3,-99.8L-21.6,-80.2L-16.9,-60.3L-12.1,-40.3L-7.2,-20L-2.3,0.6ZM-5.6,-23L-5.5,-23.9L-8,-28.3L-11.5,-26.7L-13.7,-33.1L-17.8,-28L-20.2,-32.8L-24.2,-28.5L-26.7,-33.2L-30.5,-29.2L-33.2,-32.8L-36.9,-29.9L-39.7,-32.9L-43.3,-30.5L-46.1,-33L-49.7,-31L-52.6,-32.8L-56.1,-31.5L-59.2,-32.4L-62.5,-31.9L-64.8,-32.3L-62.5,-31.9L-59.5,-30.5L-56.3,-30.3L-53.4,-28L-50,-28.8L-47.3,-25.9L-43.8,-27.3L-41.1,-23.9L-37.5,-25.9L-34.9,-22L-31.2,-24.7L-28.8,-19.7L-25,-23.4L-22.6,-18.1L-18.7,-21.9L-16.4,-15.8L-12.4,-21.2L-9.5,-18.6L-5.7,-22ZM-8.2,-33.4L-7.4,-32.5L-1.9,-30.8L-1,-34.9L5.7,-31.7L4.6,-38.5L11.2,-35.4L9.7,-42.7L15.9,-40.2L14.7,-47.1L20.5,-45L19.7,-51.4L25,-50L24.6,-55.9L29.5,-54.9L29.6,-60.2L33.9,-60.1L34.6,-64.6L38.3,-65.1L39.5,-69L42.9,-70L44.4,-73.5L47.1,-75.3L49.1,-78.1L51.4,-79.9L49.1,-78.1L45.9,-76.9L43.5,-74.6L39.7,-74L38,-70.9L33.9,-70.8L32.5,-67.2L27.9,-67.7L27.1,-63.5L21.9,-64.7L21.6,-59.7L16,-61.5L16.1,-56.1L10.1,-58.4L10.7,-52.2L4.3,-55.1L5.2,-48.5L-1.5,-51.7L-0.1,-44.6L-6.4,-47.3L-4.9,-40L-9.2,-40.1L-8.9,-34.3ZM-10.7,-43.8L-10.5,-45.1L-13,-50L-16.5,-47.8L-18.5,-56L-22.6,-50.2L-24.6,-58.1L-28.9,-50.7L-31.1,-57.9L-35.3,-51.4L-37.5,-57.9L-41.6,-52.2L-43.9,-58.1L-47.9,-52.8L-50.4,-58L-54.3,-53.2L-56.8,-57.7L-60.7,-53.8L-63.2,-58L-67,-54.5L-69.7,-57.6L-73.3,-54.9L-76.2,-57.4L-79.7,-55.5L-82.6,-57.3L-86.1,-55.9L-89.2,-56.7L-92.5,-56.2L-95.7,-56.7L-92.5,-56.2L-89.5,-54.7L-86.3,-54.5L-83.4,-52.2L-80.1,-53L-77.3,-50.1L-73.8,-51.7L-71.2,-48L-67.6,-50.2L-65.1,-45.7L-61.4,-49L-58.9,-44.2L-55.1,-47.7L-52.8,-41.9L-48.9,-46.2L-46.7,-40L-42.7,-44.9L-40.5,-38.2L-36.4,-43.7L-34.3,-36.3L-30.2,-42.5L-28.2,-34.2L-24,-41.2L-21.8,-34.4L-17.5,-41.6L-14.7,-38.5L-10.9,-42.5ZM-13.2,-54.1L-12.3,-52.9L-7,-51.2L-6.2,-55.4L0.6,-51.6L-0.3,-58L7.5,-53.1L4.8,-61.8L11.8,-57.9L9.8,-65.7L16.1,-62.6L14.5,-70L20.9,-66.8L19.4,-74L25.4,-71.2L24.2,-78.1L29.7,-76.2L28.9,-82.3L34.4,-80.4L33.7,-86.4L38.9,-84.9L38.5,-90.6L43.1,-89.8L43.4,-94.7L47.6,-94.4L48.1,-98.9L51.8,-99.3L52.9,-103.1L56.2,-104L57.6,-107.4L60.3,-109L62.2,-111.8L65.2,-114.1L62.2,-111.8L59,-110.7L56.7,-108.5L53.1,-108L51.4,-105L47.5,-105L46.1,-101.5L41.6,-102.2L40.8,-98L36,-99.1L35.6,-94.4L30.2,-96.3L30.3,-90.9L24.7,-93.1L25.1,-87.3L19.3,-89.7L19.8,-83.9L13.5,-86.9L14.5,-80.3L8,-83.7L9.3,-76.7L2.7,-80.2L4,-73.3L-3,-77.2L-1.1,-69.5L-8.8,-74.3L-6.1,-65.6L-12,-68.1L-10.2,-60.5L-14.4,-60.9L-14.1,-55.3ZM-15.7,-64.3L-15.5,-65.8L-18.1,-70.8L-21.8,-68.4L-24,-76.1L-28.1,-71.1L-30.1,-79.9L-34.6,-72.2L-36.7,-80.3L-41.2,-72.7L-43.4,-80.5L-47.8,-73.5L-50,-80.8L-54.4,-74.1L-56.8,-80.2L-61,-74.6L-63.4,-80.6L-67.6,-75.1L-70.1,-80.5L-74.1,-76L-76.8,-80.7L-80.7,-76.5L-83.5,-80.5L-87.3,-77L-90.1,-80.5L-93.9,-77.6L-96.9,-80L-100.5,-78.1L-103.6,-79.8L-107.1,-78.6L-110.3,-79.4L-113.7,-78.9L-117.7,-79.5L-113.7,-78.9L-110.6,-77.4L-107.3,-77.3L-104.3,-75.1L-100.8,-75.9L-97.9,-73L-94.4,-74.4L-91.6,-70.6L-87.9,-73.1L-85.2,-68.6L-81.4,-71.6L-78.9,-66.5L-75,-70.2L-72.5,-64.7L-68.5,-69.1L-66.1,-62.6L-62,-67.7L-59.6,-61.1L-55.5,-66.2L-53.3,-58.6L-49,-64.9L-46.9,-57L-42.5,-63.7L-40.5,-55.2L-36.1,-62.3L-34,-53.6L-29.5,-61.4L-27.1,-55.6L-22.7,-62.2L-19.9,-58.8L-16,-62.9ZM-18.3,-74.5L-17.1,-73.5L-11.7,-72.9L-11.6,-77.3L-4.2,-74.9L-6.1,-81.2L2,-78.1L-1,-85.5L6.9,-82.6L3.3,-90.5L10.7,-88.1L7.6,-95.6L14.9,-93.2L11.8,-100.6L19,-98.4L16.4,-105.4L22.8,-103.8L20.5,-110.6L26.6,-109.3L24.9,-115.5L30.6,-114.7L29.2,-120.5L34.6,-119.9L33.6,-125.4L38.6,-125.3L37.9,-130.4L42.7,-130.4L42.1,-135.5L46.7,-135.8L46.3,-140.6L50.3,-141.4L50.7,-145.6L54.3,-146.7L54.8,-150.8L58,-152.3L59.1,-155.8L61.6,-158L63.2,-161L66.4,-164.5L63.2,-161L60.3,-159.2L58.2,-156.6L54.8,-155.3L53.4,-152.1L49.5,-151.3L48.6,-147.6L44.4,-147L43.9,-143L39,-143L39,-138.5L33.9,-138.8L34.2,-133.9L29,-134.3L29.4,-129.4L23.9,-130.1L24.8,-124.7L18.9,-125.7L20,-120.1L13.8,-121.4L15.4,-115.4L8.5,-117.3L10.4,-111L3.3,-113.2L5.9,-106.1L-1.7,-108.8L1.2,-101.6L-6.4,-104.2L-3.6,-97L-11.7,-100.1L-8.3,-92.4L-15.9,-95L-12.3,-87.1L-18.7,-88.6L-15.9,-81.3L-20.3,-81L-19.4,-75.6ZM-20.8,-84.7L-20.4,-86.1L-22.4,-90.8L-26.2,-89.2L-27.6,-96.4L-32.1,-92.3L-33,-101.4L-38.1,-94.8L-39.2,-103.2L-44.4,-96.4L-45.5,-104.6L-50.8,-97.8L-51.9,-106L-57.1,-99.4L-58.3,-107L-63.4,-100.7L-64.8,-108L-69.8,-102.2L-71.4,-108.5L-76.1,-103.5L-77.8,-109.6L-82.4,-105.1L-84.3,-110.4L-88.8,-106.4L-90.8,-111.3L-95.1,-107.9L-97.2,-112.4L-101.4,-109.4L-103.6,-113.8L-107.7,-110.8L-110.1,-114.3L-114.1,-112.1L-116.6,-115.2L-120.5,-113.5L-123.1,-116.2L-126.8,-115L-129.6,-116.8L-133.2,-116.3L-136.2,-117.4L-139.6,-117.5L-144.3,-118.8L-139.6,-117.5L-136.7,-115.8L-133.4,-115.3L-130.7,-113L-127.3,-113.1L-124.8,-110.1L-121.1,-111.1L-118.7,-107.6L-115,-109L-112.7,-105.1L-108.8,-106.9L-106.8,-102.2L-102.7,-104.8L-100.6,-100.2L-96.5,-102.9L-94.5,-97.8L-90.3,-101L-88.5,-95.2L-84.2,-98.8L-82.5,-92.6L-77.9,-96.9L-76.4,-90.2L-71.8,-94.8L-70.5,-87.2L-65.6,-92.8L-64.5,-84.7L-59.5,-90.7L-58.4,-82.4L-53.3,-88.8L-52.2,-80.3L-47.1,-86.8L-46.1,-78.2L-40.9,-84.9L-39.8,-76.6L-34.4,-84L-32.7,-78.1L-27.8,-83.6L-25.3,-80.2L-21.2,-83.2ZM-23.2,-94.7L-22.2,-93.6L-17,-92.8L-16.5,-97.1L-9.9,-94.8L-10.7,-100.6L-3.1,-97.2L-5.1,-104.2L2.6,-100.7L-0.6,-109L7.3,-105.2L4.1,-113.7L11.7,-110.2L8.8,-118.3L15.9,-115.5L13.5,-123L20.2,-120.5L18.2,-127.5L25,-125L22.9,-132.2L29.2,-130.1L27.6,-136.8L33.6,-135.1L32.4,-141.3L37.8,-140.3L37,-146.1L42.4,-145L41.7,-150.6L46.5,-150.2L46.3,-155.4L51,-155.2L51,-160L55.2,-160.3L55.7,-164.7L59.5,-165.4L60.3,-169.4L63.8,-170.5L64.9,-174.1L67.9,-175.7L69.5,-178.8L72.1,-180.9L74,-183.7L77.9,-187.2L74,-183.7L71,-182.1L68.8,-179.6L65.4,-178.4L63.6,-175.5L59.9,-174.7L58.5,-171.3L54.4,-170.9L53.4,-167.1L49,-167.1L48.3,-162.9L43.5,-163.3L43.4,-158.6L38.2,-159.3L38.2,-154.5L32.7,-155.6L33.2,-150.2L27.5,-151.5L28.1,-146L22,-147.8L23.1,-141.7L16.7,-143.9L18.1,-137.4L11.2,-140.1L13.1,-133.1L6.3,-135.7L8.1,-128.8L0.9,-131.8L3,-124.6L-4.7,-128.2L-1.9,-120.3L-10.1,-124.3L-7,-116.1L-15,-119.9L-12.2,-112L-19.1,-114.6L-16.3,-106.7L-22,-108.1L-20.3,-101.3L-24.6,-101.1L-24.3,-95.9ZM-25.7,-104.7L-25.3,-106.2L-27.3,-110.8L-31.1,-109L-32.3,-116.5L-36.9,-112L-37.6,-121.2L-42.7,-114.8L-43.5,-123.8L-48.8,-116.5L-49.8,-124.7L-55.1,-117.7L-56.2,-125.4L-61.3,-119.2L-62.5,-126.5L-67.4,-120.8L-68.7,-127.8L-73.6,-122.3L-75,-129L-79.8,-123.7L-81.3,-129.9L-86,-125L-87.6,-131L-92.1,-126.6L-93.9,-132.2L-98.4,-127.9L-100.3,-133L-104.6,-129.4L-106.6,-133.7L-110.8,-130.8L-113,-134.8L-117,-132.2L-119.3,-135.8L-123.2,-133.6L-125.7,-136.5L-129.4,-135L-132,-137.4L-135.6,-136.3L-138.4,-138.2L-141.8,-137.7L-144.8,-138.8L-148.1,-138.9L-153,-140.2L-148.1,-138.9L-145.2,-137.2L-142.1,-136.7L-139.4,-134.4L-136.1,-134.6L-133.6,-131.8L-130.1,-132.5L-127.7,-129.3L-124,-130.5L-121.8,-126.6L-118,-128.5L-115.9,-124.2L-112,-126.5L-110,-121.8L-105.9,-124.5L-104.1,-119.2L-99.9,-122.6L-98.2,-116.6L-93.9,-120.4L-92.3,-114.3L-87.8,-118.6L-86.3,-112L-81.8,-116.5L-80.4,-109.5L-75.8,-114.5L-74.5,-107.3L-69.7,-112.6L-68.5,-105.2L-63.6,-110.8L-62.5,-102.9L-57.5,-108.8L-56.7,-100.2L-51.6,-106.7L-50.8,-97.7L-45.4,-105L-44.4,-96.8L-39,-104.3L-37.5,-98.1L-32.6,-103.9L-30.2,-100.4L-26.1,-103.3ZM-28.2,-114.7L-27.2,-113.7L-22.1,-113.3L-21.9,-117.5L-15.2,-115.5L-16.4,-121.1L-8.6,-118.1L-11.3,-125L-3.5,-122L-7.1,-129.9L0.8,-126.8L-2.8,-134.5L4.4,-132.1L1.3,-139.5L8.1,-137.4L5.4,-144.3L12.2,-142.3L9.8,-149L16.3,-147.1L13.8,-153.9L19.9,-152.6L18.1,-158.6L23.8,-157.6L22.3,-163.5L27.7,-162.7L26.5,-168.3L31.7,-167.7L30.6,-173.1L35.5,-172.9L34.9,-177.9L39.5,-177.9L39,-182.7L43,-183.4L43.1,-187.6L47,-188.3L47.2,-192.5L50.6,-193.7L51.4,-197.4L54.3,-199L55.5,-202.2L57.9,-204.4L59.5,-207.2L63,-210.9L59.5,-207.2L56.7,-205.5L54.7,-203L51.5,-201.6L50,-198.6L46.4,-197.6L45.4,-194.3L41.2,-193.8L40.8,-189.8L36.5,-189.5L36.1,-185.5L31.2,-185.7L31.5,-181.1L26.5,-181.4L27,-176.6L21.4,-177.4L22.3,-172.2L16.7,-173.1L17.8,-167.7L11.8,-168.9L13.1,-163.3L7,-164.7L8.7,-158.8L1.8,-160.9L4,-154.4L-2.9,-156.5L-0.5,-149.9L-7.5,-152.2L-5,-145.4L-12.6,-148.2L-9.8,-141.2L-17.7,-144.2L-14.2,-136.5L-22.2,-139.7L-18.8,-132.1L-25.9,-134.4L-22.4,-126.8L-28.1,-127.7L-25.7,-121.2L-29.9,-120.7L-29.2,-115.7ZM-30.6,-124.6L-30.3,-125.9L-32.4,-131.1L-36.4,-128.9L-37.9,-136.1L-42.4,-131.9L-43.5,-140.9L-48.6,-134.8L-49.6,-143.9L-55.1,-136.1L-56.4,-144.3L-61.5,-137.6L-62.9,-145.3L-68,-139L-69.5,-146.4L-74.5,-140.4L-76.1,-147.5L-81,-141.7L-82.6,-148.7L-87.5,-143.3L-89.2,-149.8L-94,-144.5L-96,-150.3L-100.5,-146L-102.5,-151.4L-107,-147.4L-109.1,-152.4L-113.5,-148.8L-115.7,-153.5L-120,-150.2L-122.4,-154.1L-126.5,-151.6L-129,-155.1L-133,-153L-135.6,-156.1L-139.5,-154.4L-142.3,-156.8L-146,-155.7L-148.9,-157.6L-152.5,-157L-155.6,-158.1L-159.1,-158.2L-164.2,-159.5L-159.1,-158.2L-156,-156.6L-152.8,-156L-149.9,-153.7L-146.4,-153.9L-143.7,-151.1L-140.1,-151.8L-137.6,-148.4L-133.8,-149.9L-131.3,-146.1L-127.4,-147.9L-125.1,-143.7L-121.1,-145.9L-119,-141L-114.7,-144L-112.7,-138.7L-108.4,-142L-106.5,-136.3L-102,-140.1L-100.2,-134.2L-95.7,-138.2L-94.1,-131.2L-89.4,-136L-87.8,-129L-83,-134.3L-81.5,-126.8L-76.6,-132.3L-75.2,-124.6L-70.3,-130.3L-69,-122.3L-64,-128.3L-62.7,-120L-57.6,-126.5L-56.6,-117L-51.2,-124.5L-49.9,-116.6L-44.5,-123.9L-42.6,-118.1L-37.8,-123.6L-35.3,-119.7L-31,-123.2ZM-33.1,-134.4L-32,-133.3L-26.7,-132.5L-26.4,-136.9L-19.8,-134.7L-20.9,-140.6L-12.9,-137L-15.5,-144.3L-7.8,-141L-11.1,-149.1L-3.1,-145.5L-6.6,-153.8L0.9,-150.8L-2.2,-158.6L5,-155.8L2.3,-163.3L9.5,-160.5L6.8,-168L13.3,-166L11.3,-172.7L17.7,-170.8L15.8,-177.4L21.5,-176.2L20.3,-182L26,-180.8L24.7,-186.9L29.8,-186.3L29.2,-191.5L34,-191.3L33.7,-196.2L38.1,-196.4L38.1,-201.1L42.3,-201.4L42.6,-205.7L46.4,-206.5L47,-210.5L50.4,-211.7L51.4,-215.3L54.5,-216.9L55.8,-220.2L58.3,-222.2L60.1,-225.1L63.8,-228.7L60.1,-225.1L57.2,-223.4L55.1,-220.9L51.7,-219.7L50.1,-216.7L46.4,-215.8L45.2,-212.4L41.2,-211.9L40.3,-208.2L36,-207.9L35.5,-203.7L30.8,-203.9L30.5,-199.5L25.6,-199.9L25.7,-195.1L20.5,-195.9L20.9,-190.8L14.9,-192.2L16,-186.5L10.2,-187.8L11.2,-182.1L4.6,-184.2L6.4,-177.7L-0.2,-179.9L1.6,-173.3L-5.8,-176.3L-3.2,-169L-10.6,-171.9L-8.1,-164.6L-15.8,-167.9L-12.9,-160.3L-21.2,-164.1L-17.8,-156L-25.8,-159.5L-22.7,-151.7L-30,-154.5L-26.6,-146.4L-32.4,-147.7L-30.4,-141L-34.8,-140.8L-34.1,-135.5ZM-35.5,-144.2L-35.1,-145.6L-37.1,-150.5L-41,-148.8L-42.5,-155.3L-47,-151.8L-47.7,-160.9L-53,-154.4L-53.9,-163.3L-59.4,-156.2L-60.3,-164.8L-65.7,-157.9L-66.9,-165.5L-72.1,-159.3L-73.4,-166.8L-78.5,-161L-79.7,-168.4L-84.8,-162.7L-86.2,-169.7L-91.2,-164.1L-92.7,-170.7L-97.6,-165.8L-99.3,-171.7L-104,-167.2L-105.8,-172.9L-110.4,-168.8L-112.4,-173.7L-116.8,-170.4L-118.8,-175L-123.1,-172L-125.3,-176.3L-129.5,-173.5L-132,-176.9L-135.9,-175L-138.4,-178.2L-142.3,-176.6L-145,-179.2L-148.7,-178.1L-151.6,-180L-155.1,-179.6L-158.2,-180.7L-161.6,-180.9L-166.6,-182.3L-161.6,-180.9L-158.6,-179.2L-155.4,-178.5L-152.7,-176.2L-149.2,-176.3L-146.6,-173.4L-143,-174.2L-140.6,-170.7L-136.8,-172L-134.5,-168.3L-130.6,-169.8L-128.5,-165.3L-124.4,-167.8L-122.4,-162.9L-118.1,-165.6L-116.2,-160.5L-111.9,-163.6L-110.2,-157.6L-105.7,-161.5L-104.1,-155.2L-99.5,-159.2L-98,-152.5L-93.2,-157.2L-92,-149.8L-87,-155L-85.8,-147.5L-80.8,-153L-79.6,-145.4L-74.5,-151L-73.4,-143L-68.3,-148.8L-67.5,-140L-62.1,-146.8L-61.3,-137.9L-55.8,-144.9L-54.8,-136.6L-49.3,-143.8L-47.4,-138.5L-42.6,-143.2L-40.2,-139.7L-35.9,-142.8ZM-37.9,-153.9L-36.9,-152.8L-31.4,-151.6L-31.1,-156.2L-24,-153.4L-25.2,-159.6L-16.7,-155.2L-20,-163.7L-12.4,-160.3L-15.2,-168.2L-7.8,-165.1L-10.6,-173L-3.5,-170.2L-5.9,-177.6L1,-175L-1.4,-182.5L5.4,-180L3.2,-187.2L9.7,-185.1L7.8,-191.9L13.7,-190.4L12.5,-196.6L18.1,-195.5L17.2,-201.3L22.6,-200.3L21.8,-206.1L26.6,-205.7L26.5,-210.7L31,-210.7L31.1,-215.5L35.1,-216L35.6,-220.2L39.2,-221.3L40.2,-225L43.3,-226.5L44.8,-229.8L47.4,-231.9L49.2,-234.7L52.7,-238L49.2,-234.7L46.2,-233.1L44,-230.7L40.6,-229.5L38.8,-226.5L35,-225.7L33.7,-222.3L29.4,-222.1L28.6,-218.1L23.9,-218.3L23.6,-213.8L18.6,-214.3L18.6,-209.5L12.9,-210.7L13.4,-205.3L7.7,-206.6L8.4,-201L2.4,-202.7L3.4,-196.7L-3.3,-199L-1.6,-192.4L-8.6,-195.1L-6.7,-188.1L-14,-191.1L-11.9,-184L-19.1,-186.9L-16.9,-179.7L-24.5,-183.1L-21.9,-175.4L-29.6,-178.8L-26.8,-171L-35,-174.9L-31.3,-166.1L-37.4,-167.8L-35.1,-160.5L-39.7,-160.6L-38.9,-154.9ZM-40.3,-163.5L-40,-164.9L-42,-169.9L-45.8,-168.1L-47.2,-175.7L-51.8,-171L-52.7,-180.2L-57.9,-173.2L-59.1,-181.2L-64.2,-174.7L-65.4,-182.8L-70.5,-176.1L-71.8,-183.9L-76.8,-177.5L-78.4,-184.4L-83.2,-178.9L-84.8,-185.6L-89.5,-180.3L-91.3,-186.3L-95.9,-181.5L-97.6,-187.6L-102.2,-182.9L-104.1,-188.4L-108.5,-184.3L-110.7,-189L-114.9,-185.7L-117.1,-189.9L-121.2,-187L-123.6,-190.5L-127.6,-188.3L-130,-191.7L-133.9,-189.7L-136.6,-192.3L-140.3,-191L-143.2,-192.8L-146.7,-192.2L-149.7,-193.3L-153.1,-193.3L-157.6,-194.5L-153.1,-193.3L-150.2,-191.6L-147,-191L-144.2,-188.8L-140.8,-189L-138.2,-186L-134.7,-186.9L-132.3,-183.3L-128.5,-185L-126.1,-181.1L-122.3,-183L-120.1,-178.5L-116.1,-181L-114.1,-176.1L-109.9,-179L-108.1,-173.4L-103.7,-177.2L-102.1,-170.8L-97.5,-175.3L-95.9,-168.8L-91.4,-173.1L-89.9,-166.2L-85.2,-171.2L-83.7,-164.1L-79,-169.3L-77.8,-161.2L-72.8,-167.4L-71.7,-159.1L-66.6,-165.5L-65.4,-157.4L-60.4,-163.7L-59.3,-155L-54,-162.6L-52.3,-156.3L-47.4,-162.2L-45,-158.7L-40.7,-162.1ZM-42.7,-173.1L-41.9,-171.9L-36.6,-170.3L-35.9,-174.5L-29.5,-171.4L-30,-177.2L-21.6,-171.6L-24.8,-180.9L-17.3,-176.3L-19.9,-184.9L-12.5,-180.5L-15.1,-189L-8.5,-185.7L-10.1,-192.9L-4,-190.2L-5.5,-197.2L0.8,-194.3L-0.6,-201.3L5.4,-198.8L4.2,-205.5L9.6,-203.7L9.1,-209.4L14.1,-208.1L13.8,-213.7L18.7,-212.6L18.7,-217.7L23.2,-217.1L23.4,-221.9L27.5,-221.8L28.2,-226.1L31.9,-226.5L33,-230.3L36.2,-231.3L37.7,-234.5L40.4,-236.2L42.3,-238.9L45.7,-241.5L42.3,-238.9L39.3,-237.6L37,-235.5L33.5,-234.8L31.7,-231.9L27.8,-231.8L26.4,-228.4L22.1,-228.8L21.2,-224.8L16.5,-225.8L15.9,-221.3L10.9,-222.6L10.8,-217.6L5.5,-219.3L5.5,-214.1L0,-216L0.4,-210.3L-5.8,-213.2L-4.8,-206.8L-11.2,-209.9L-10,-203.1L-16.4,-206.2L-15.3,-199.7L-21.9,-203L-20.4,-195.8L-27.9,-200.4L-25.5,-192.2L-33.2,-196.9L-30.7,-188.5L-38.8,-193.8L-35.5,-184.4L-41,-186.3L-39.6,-179.3L-43.8,-179.6L-43.6,-174.2ZM-45.1,-182.6L-44.9,-184L-47.6,-188.7L-51.2,-186.3L-53.6,-193L-57.5,-188.8L-59.5,-197.9L-63.9,-190.1L-66,-199L-70.4,-191L-72.7,-198.2L-76.9,-191.6L-79.2,-198.5L-83.4,-192.1L-85.8,-198.9L-89.9,-192.9L-92.4,-198.9L-96.4,-193.3L-99,-199L-102.9,-194.1L-105.5,-199.1L-109.5,-194.6L-112.1,-199.6L-116,-195.3L-118.7,-199.7L-122.5,-195.9L-125.3,-199.5L-129,-196.5L-131.9,-199.8L-135.6,-196.9L-138.5,-199.7L-142.1,-197.4L-145,-199.8L-148.6,-197.9L-151.7,-199.4L-155.1,-198.4L-158.3,-199.2L-161.7,-198.8L-166.4,-199.4L-161.7,-198.8L-158.6,-197.4L-155.3,-197.3L-152.3,-195.4L-148.9,-196L-146,-193.2L-142.4,-194.7L-139.6,-191.6L-136,-193.5L-133.3,-189.7L-129.6,-192.1L-126.9,-188.2L-123.2,-190.8L-120.5,-186.1L-116.8,-189.7L-114.2,-184.4L-110.3,-188.5L-107.8,-183.1L-103.9,-187.2L-101.4,-181.5L-97.4,-186.2L-95,-179.8L-91,-184.8L-88.7,-177.9L-84.6,-183.8L-82.3,-176.5L-78.1,-182.6L-75.9,-175L-71.7,-181.4L-69.6,-172.5L-65.2,-180.5L-63.1,-171.8L-58.7,-180L-56.1,-174.8L-52,-180.7L-49.2,-177.3L-45.3,-181.1ZM-47.5,-192L-46.6,-190.8L-40.9,-188.9L-40.2,-193.4L-33.2,-189.8L-33.9,-196.1L-26.5,-192L-28.9,-200.4L-21.4,-196.1L-23.8,-204.6L-17,-201.3L-18.9,-209.1L-12.4,-206.1L-13.9,-213.5L-7.9,-211.2L-8.9,-217.9L-3.3,-216L-4,-222.3L1.4,-220.7L1,-226.6L6,-225.6L6,-230.9L10.6,-230.5L10.9,-235.5L14.9,-235.7L15.8,-239.9L19.3,-240.7L20.8,-244.3L23.6,-246L25.5,-248.9L28.5,-251.2L25.5,-248.9L22.2,-247.8L19.9,-245.5L16.1,-245L14.4,-241.8L10.1,-241.8L8.9,-238L4,-238.9L3.3,-234.5L-1.9,-235.7L-2.1,-230.6L-7.8,-232.5L-7.5,-226.8L-13.5,-229.1L-13,-223.1L-19.3,-225.7L-18.5,-219.4L-25.2,-222.6L-24,-215.6L-31.1,-219.4L-29.5,-211.9L-37.1,-216.4L-34.8,-208L-42.4,-212.4L-40.2,-204.2L-46.2,-206.4L-44.4,-198.8L-48.9,-199.2L-48.4,-193.2ZM-49.9,-201.4L-49.5,-202.7L-51.6,-208.3L-55.5,-206.5L-56.9,-214.8L-61.7,-209.4L-63,-218L-68.3,-210.8L-69.8,-218.4L-74.9,-211.9L-76.5,-219.3L-81.5,-213.3L-83.3,-220L-88.1,-214.6L-90.1,-220.5L-94.7,-215.9L-96.9,-221L-101.3,-217.1L-103.7,-221.4L-108,-218.3L-110.6,-221.8L-114.6,-219.5L-117.3,-222.4L-121.2,-220.7L-124.2,-222.7L-127.9,-221.8L-131,-223L-134.6,-222.8L-137.9,-223.6L-134.6,-222.8L-131.6,-220.9L-128.2,-220.4L-125.4,-217.9L-121.8,-218.3L-119.2,-214.9L-115.4,-216.2L-113,-212.2L-109,-214L-106.8,-209.3L-102.6,-212L-100.6,-206.5L-96.2,-210L-94.3,-203.6L-89.8,-207.9L-88.1,-200.8L-83.4,-205.9L-81.8,-198.3L-76.9,-204.1L-75.5,-195.9L-70.5,-201.8L-69.3,-193L-64.1,-200L-62.4,-192.9L-57.2,-199.7L-54.6,-196.2L-50.2,-200.1ZM-52.2,-210.7L-51.3,-209.7L-45.6,-208.6L-45,-212.9L-37.6,-209.9L-39.2,-216.6L-32.3,-214.1L-34.6,-221.5L-27.9,-219.4L-29.8,-226.3L-23.3,-224.3L-25.3,-231.4L-19.2,-229.8L-20.5,-236.2L-15,-235.3L-16,-241.2L-11.1,-241L-11.3,-246.2L-6.8,-246.3L-6.7,-251.1L-2.6,-251.6L-2.1,-256L1.4,-257.3L2.5,-261L5.2,-263.1L7,-266.2L9.3,-268.4L7,-266.2L3.8,-264.6L1.5,-262.1L-2.2,-261.2L-3.7,-257.8L-8.2,-257.6L-9,-253.5L-13.8,-253.8L-14.2,-249.2L-19.3,-249.8L-19.4,-244.9L-25.3,-246.3L-24.8,-240.7L-31,-242.5L-29.8,-236.2L-36.8,-238.7L-35.2,-232.1L-42,-234.4L-40.3,-227.7L-47.5,-230.4L-45.5,-223.3L-52.1,-225.4L-49.6,-217.8L-53.9,-217.5L-53.2,-211.7ZM-54.6,-220L-54.3,-221.2L-56.5,-226.7L-60.3,-224.8L-62,-232.6L-66.7,-227.2L-68.3,-235.2L-73.3,-228.3L-75,-235.6L-79.8,-229.8L-81.9,-235.7L-86.4,-230.7L-88.7,-236L-93.1,-231.8L-95.4,-236.5L-99.7,-232.9L-102.2,-237.1L-106.3,-234L-108.9,-237.8L-112.9,-235.1L-115.7,-238L-119.6,-236.1L-122.5,-238.3L-126.2,-237.1L-129.4,-238.2L-132.9,-237.9L-136,-238.6L-132.9,-237.9L-129.9,-236.1L-126.5,-235.7L-123.7,-233L-120.1,-233.6L-117.4,-230.3L-113.7,-231.7L-111.2,-227.5L-107.3,-229.8L-104.9,-225.2L-100.8,-227.9L-98.5,-222.9L-94.4,-226.1L-92.3,-220.3L-88,-224.1L-86,-217.7L-81.5,-222.1L-79.8,-214.8L-75,-220.6L-73.5,-212.3L-68.6,-218.8L-66.7,-211.9L-61.8,-218.2L-59.2,-214.8L-54.8,-218.8ZM-56.9,-229.2L-56.1,-228.1L-50.7,-226.4L-49.6,-230.5L-42.3,-226.3L-43.6,-233.6L-37.1,-230.5L-38.5,-238L-32,-234.8L-33.2,-242L-27.1,-239.2L-28.1,-246.3L-22.4,-244.1L-23.1,-250.6L-17.9,-249.2L-18,-255L-13.1,-254L-12.9,-259.2L-8.5,-258.9L-7.8,-263.5L-3.8,-263.7L-2.8,-268L0.7,-268.8L2.2,-272.3L5.1,-274L7.2,-276.8L9.7,-278.7L7.2,-276.8L3.9,-275.7L1.4,-273.4L-2.4,-272.9L-4.2,-269.8L-8.6,-270.1L-9.9,-266.3L-14.5,-267L-15.5,-262.7L-20.6,-264L-21,-259L-26.5,-260.8L-26.6,-255.4L-32.7,-257.9L-32.3,-251.8L-38.7,-254.9L-37.9,-248.2L-44.4,-251.4L-43.2,-244.3L-50,-247.7L-48.8,-240.7L-55.5,-244L-53.6,-235.9L-57.8,-236L-57.7,-230.3ZM-59.2,-238.3L-59,-239.4L-61.4,-244.4L-65,-242.2L-66.9,-249.6L-71.1,-244.3L-73.3,-250.3L-77.4,-245.1L-79.6,-250.8L-83.7,-245.8L-86.1,-250.9L-90,-246.6L-92.5,-250.8L-96.4,-247L-98.9,-251.2L-102.7,-247.8L-105.4,-250.9L-109,-248.6L-111.8,-251.2L-115.3,-249.2L-118.3,-251L-121.7,-249.7L-124.8,-250.6L-128.1,-250.2L-130.8,-250.6L-128.1,-250.2L-125.1,-248.7L-121.9,-248.4L-119.1,-246.1L-115.8,-246.8L-113.1,-243.8L-109.6,-245.3L-106.9,-241.9L-103.4,-243.9L-100.9,-239.4L-97.2,-242.5L-94.8,-237.7L-91,-240.9L-88.7,-235.5L-84.8,-239.4L-82.6,-233.4L-78.6,-238L-76.5,-231.8L-72.4,-236.7L-70.3,-230.3L-66,-236.6L-63.3,-233.3L-59.4,-237.3ZM-61.5,-247.4L-60.9,-246.8L-55.7,-246.1L-54.6,-249.9L-48.7,-248.4L-49.5,-254.4L-44.6,-254L-44.7,-259.2L-39.9,-259L-40,-264.2L-35.8,-264.6L-35.3,-269.1L-31.5,-269.9L-30.5,-273.9L-27.3,-275.4L-25.9,-278.9L-23.1,-280.9L-21.3,-283.9L-19.7,-285.4L-21.3,-283.9L-24.5,-282.4L-26.7,-279.9L-30.4,-278.8L-32.2,-275.7L-36.2,-275.2L-37.4,-271.4L-42,-271.4L-42.8,-267.2L-47.9,-267.8L-48.1,-263L-53.3,-263.7L-53.4,-258.7L-59.3,-260.1L-58.4,-254.1L-62.3,-253.3L-62.1,-248.1ZM-63.8,-256.4L-63.6,-257.1L-65.4,-261.5L-69,-260.8L-70.7,-265.5L-75.1,-262.7L-76.9,-266.9L-81.2,-264.5L-83.3,-268.1L-87.3,-266.4L-89.6,-269.2L-93.4,-268.1L-96,-270.3L-99.5,-269.8L-102.4,-271.1L-105.7,-271.3L-107.4,-271.9L-105.7,-271.3L-103,-269.4L-99.9,-268.6L-97.5,-266L-94.1,-266L-91.9,-262.8L-88.3,-263.5L-86.3,-259.6L-82.4,-261.2L-80.6,-256.6L-76.5,-258.6L-74.9,-253.8L-70.6,-256.3L-68.2,-253.5L-64.1,-255.7ZM-66.1,-265.4L-65.7,-264.9L-60.8,-264.2L-59.5,-267.9L-54.7,-267.3L-54.4,-272.4L-50.1,-272.4L-49.3,-276.8L-45.4,-277.3L-44.3,-281.3L-41,-282.6L-39.3,-285.9L-36.5,-287.7L-34.4,-290.6L-33.2,-291.6L-34.4,-290.6L-37.7,-289.2L-40.1,-286.9L-43.7,-286L-45.7,-283L-49.8,-282.9L-51.2,-279.2L-55.7,-279.4L-56.7,-275.2L-61.7,-276.1L-62.2,-271.3L-66.1,-270.8L-66.5,-265.9ZM-68.4,-274.3L-68.3,-274.7L-71.2,-278.8L-75.2,-277.1L-78.4,-279.6L-82.4,-278.1L-85.7,-279.9L-89.6,-279L-93,-280.1L-96.8,-279.8L-97.9,-280L-96.8,-279.8L-93.4,-278.2L-89.8,-277.8L-86.5,-275.6L-82.8,-276L-79.7,-273.1L-75.8,-274.2L-72.7,-271.2L-68.5,-273.8ZM-70.7,-283.1L-70.5,-282.9L-67.2,-282.8L-66.4,-285.5L-63.8,-286.1L-62.9,-288.7L-60.7,-289.8L-59.5,-292.1L-57.6,-293.5L-56.2,-295.5L-55.6,-296L-56.2,-295.5L-58.4,-294.4L-60.1,-292.7L-62.5,-291.9L-63.9,-289.9L-66.6,-289.4L-67.7,-286.9L-70.5,-286.6L-70.8,-283.3Z"/></g></g></g>
  <rect class="grain" width="900" height="900" filter="url(#cyanotote01-grain)" opacity="0.13" style="mix-blend-mode:multiply"/>
</svg>