<svg xmlns="http://www.w3.org/2000/svg" viewBox="0 0 900 900" width="900" height="900" role="img" aria-label="Maple and moon bandana print" class="cyano cyano-blue">
  
  <defs>
    <filter id="cyanomaple01-wash" x="-5%" y="-5%" width="110%" height="110%" color-interpolation-filters="sRGB">
      <feTurbulence type="fractalNoise" baseFrequency="0.0040 0.0050" numOctaves="3" seed="47" result="low"/>
      <feDisplacementMap in="SourceGraphic" in2="low" scale="27" xChannelSelector="R" yChannelSelector="G" result="rough"/>
      <feTurbulence type="fractalNoise" baseFrequency="0.015" numOctaves="4" seed="54" result="mottle"/>
      <feColorMatrix in="mottle" type="matrix" values="0 0 0 0 0  0 0 0 0 0  0 0 0 0 0  0 0 0 0.55 0" result="mottleA"/>
      <feComposite in="mottleA" in2="rough" operator="in" result="mottleClip"/>
      <feBlend in="rough" in2="mottleClip" mode="multiply"/>
    </filter>
    <filter id="cyanomaple01-grain" x="0" y="0" width="100%" height="100%" color-interpolation-filters="sRGB">
      <feTurbulence type="fractalNoise" baseFrequency="0.9" numOctaves="2" seed="50"/>
      <feColorMatrix type="saturate" values="0"/>
    </filter>
    <filter id="cyanomaple01-soft" x="-10%" y="-10%" width="120%" height="120%">
      <feGaussianBlur stdDeviation="0.64"/>
    </filter>
    <filter id="cyanomaple01-halo" x="-20%" y="-20%" width="140%" height="140%">
      <feGaussianBlur stdDeviation="10.0"/>
    </filter>
    <radialGradient id="cyanomaple01-vig" cx="50%" cy="45%" r="75%">
      <stop offset="0" stop-color="#2C5A8C" stop-opacity="0.35"/>
      <stop offset="0.55" stop-color="#1E4068" stop-opacity="0"/>
      <stop offset="1" stop-color="#14304F" stop-opacity="0.75"/>
    </radialGradient>
  </defs>
  <rect class="paper" width="900" height="900" fill="#F1ECE0"/>
  <rect class="wash" x="40.5" y="40.5" width="819" height="819" fill="#1E4068" filter="url(#cyanomaple01-wash)"/>
  <rect class="vignette" x="40.5" y="40.5" width="819" height="819" fill="url(#cyanomaple01-vig)"/>
  <g class="halo" fill="#F3EEE2" opacity="0.28" filter="url(#cyanomaple01-halo)"><g class="plant" data-i="0" transform="translate(430 780) rotate(-9) scale(1.8)"><g class="sway" data-phase="3.95" data-amp="0.72"><path d="M-26.6,-152.8L-61,-151.1L-74.4,-160.1L-93.5,-174L-70.8,-180.5L-55.2,-184.4L-55.1,-189.3L-70.6,-205.1L-76.7,-226.6L-80.9,-253.9L-54.7,-245L-34.6,-235.3L-20.5,-213.8L-27.3,-252.7L-16.7,-276.3L0,-310.7L16.7,-276.3L27.3,-252.7L22.4,-218.9L34.6,-235.3L54.7,-245L81.6,-254.7L76.7,-226.6L70.6,-205.1L52.8,-188L55.2,-184.4L70.8,-180.5L91.8,-173.7L74.4,-160.1L61,-151.1L26.6,-152.8ZM3,0.2L4,-24.7L4.5,-49.1L4.5,-73.1L4,-96.7L3,-119.9L1.5,-142.6L-1.5,-142.4L-0.5,-119.7L0,-96.6L0,-73.1L-0.5,-49.2L-1.5,-24.9L-3,-0.2Z"/></g></g>
<g class="plant" data-i="1" transform="translate(735 205) rotate(0) scale(1)"><g class="sway" data-phase="2.96" data-amp="1.25"><path d="M0,-58A58,58 0 0,1 0,58A78.3,78.3 0 0,0 0,-58Z"/></g></g></g>
  <g class="plants" fill="#F3EEE2" opacity="0.96" filter="url(#cyanomaple01-soft)"><g class="plant" data-i="0" transform="translate(430 780) rotate(-9) scale(1.8)"><g class="sway" data-phase="3.95" data-amp="0.72"><path d="M-26.6,-152.8L-61,-151.1L-74.4,-160.1L-93.5,-174L-70.8,-180.5L-55.2,-184.4L-55.1,-189.3L-70.6,-205.1L-76.7,-226.6L-80.9,-253.9L-54.7,-245L-34.6,-235.3L-20.5,-213.8L-27.3,-252.7L-16.7,-276.3L0,-310.7L16.7,-276.3L27.3,-252.7L22.4,-218.9L34.6,-235.3L54.7,-245L81.6,-254.7L76.7,-226.6L70.6,-205.1L52.8,-188L55.2,-184.4L70.8,-180.5L91.8,-173.7L74.4,-160.1L61,-151.1L26.6,-152.8ZM3,0.2L4,-24.7L4.5,-49.1L4.5,-73.1L4,-96.7L3,-119.9L1.5,-142.6L-1.5,-142.4L-0.5,-119.7L0,-96.6L0,-73.1L-0.5,-49.2L-1.5,-24.9L-3,-0.2Z"/></g></g>
<g class="plant" data-i="1" transform="translate(735 205) rotate(0) scale(1)"><g class="sway" data-phase="2.96" data-amp="1.25"><path d="M0,-58A58,58 0 0,1 0,58A78.3,78.3 0 0,0 0,-58Z"/></g></g></g>
  <rect class="grain" width="900" height="900" filter="url(#cyanomaple01-grain)" opacity="0.13" style="mix-blend-mode:multiply"/>
</svg>